<svg xmlns="http://www.w3.org/2000/svg" width="112" height="122.97" viewBox="0 0 112 122.97">
  <metadata><?xpacket begin="﻿" id="W5M0MpCehiHzreSzNTczkc9d"?>
<x:xmpmeta xmlns:x="adobe:ns:meta/" x:xmptk="Adobe XMP Core 5.6-c138 79.159824, 2016/09/14-01:09:01        ">
   <rdf:RDF xmlns:rdf="http://www.w3.org/1999/02/22-rdf-syntax-ns#">
      <rdf:Description rdf:about=""/>
   </rdf:RDF>
</x:xmpmeta>
                                                                                                    
                                                                                                    
                                                                                                    
                                                                                                    
                                                                                                    
                                                                                                    
                                                                                                    
                                                                                                    
                                                                                                    
                                                                                                    
                                                                                                    
                                                                                                    
                                                                                                    
                                                                                                    
                                                                                                    
                                                                                                    
                                                                                                    
                                                                                                    
                                                                                                    
                                                                                                    
                           
<?xpacket end="w"?></metadata>
<defs>
    <style>
      .cls-1 {
        fill: #fff;
        fill-rule: evenodd;
      }
    </style>
  </defs>
  <path id="dots2" class="cls-1" d="M1927.37,5442.06a11.746,11.746,0,0,0-16.1,3.92,11.6,11.6,0,0,0-1.69,5.86l-17.8,4.33c-0.07-.17-0.16-0.34-0.23-0.51s-0.15-.33-0.23-0.5c-0.12-.25-0.25-0.5-0.39-0.74-0.11-.21-0.22-0.41-0.34-0.61-0.08-.13-0.17-0.26-0.26-0.39l10.07-10.05a8.682,8.682,0,1,0-3.69-3.53l-8.88,8.85,5.46-35.66a8.7,8.7,0,1,0-5.06-.77l-5.39,35.27a12.949,12.949,0,0,0-1.45-.48c-0.04-.01-0.07-0.02-0.1-0.03a14.842,14.842,0,0,0-2.1-.35,1.477,1.477,0,0,0-.21-0.01,14.557,14.557,0,0,0-2.09-.05l-4.44-18.18a11.507,11.507,0,0,0,5.21-4.58,11.709,11.709,0,1,0-16.09,3.91,11.538,11.538,0,0,0,5.87,1.69l4.47,18.3a15.044,15.044,0,0,0-2.04,1.04c-0.11.06-.2,0.14-0.31,0.21-0.44.28-.88,0.56-1.29,0.88l-14.19-12.24a11.6,11.6,0,0,0,1.59-6.75,11.747,11.747,0,1,0-5.07,10.49l14.19,12.24c-0.14.2-.29,0.39-0.42,0.61a14.806,14.806,0,0,0-1.85,4.68c-0.05.23-.11,0.46-0.16,0.68-0.03.22-.06,0.45-0.09,0.67-0.02.14-.05,0.28-0.06,0.42l-18.25,1.69a11.618,11.618,0,0,0-3.78-5.82,11.716,11.716,0,1,0,4.06,10.92l18.25-1.69c0.04,0.18.1,0.35,0.14,0.52,0.06,0.19.11,0.37,0.16,0.56,0.08,0.26.17,0.51,0.27,0.76,0.08,0.23.17,0.45,0.27,0.68,0.08,0.2.17,0.39,0.27,0.59,0.12,0.26.26,0.52,0.4,0.78,0.08,0.15.16,0.29,0.25,0.44q0.255,0.42.54,0.84c0.08,0.11.17,0.23,0.25,0.34a10.038,10.038,0,0,0,.64.82c0.06,0.07.11,0.13,0.16,0.18l-27.46,27.43a8.476,8.476,0,0,0-3.97-1.01,8.674,8.674,0,1,0,7.58,4.61l27.85-27.79a15.3,15.3,0,0,0,1.57.78l0.12,0.06a14.714,14.714,0,0,0,2.01.64,1.6,1.6,0,0,0,.21.05,14.052,14.052,0,0,0,2.06.34l1.73,18.64a11.767,11.767,0,1,0,5.11-.28l-1.74-18.75a14.83,14.83,0,0,0,2.16-.73c0.13-.05.25-0.12,0.38-0.18a13.2,13.2,0,0,0,1.36-.67l12.25,14.18a11.568,11.568,0,0,0-2.55,6.44,11.76,11.76,0,1,0,6.55-9.63l-12.25-14.18c0.17-.18.34-0.35,0.5-0.54a15.344,15.344,0,0,0,1.58-2.35l9.73,3.18c-0.01.11-.03,0.21-0.03,0.33a8.641,8.641,0,1,0,1.74-5.14l-9.79-3.21a12.747,12.747,0,0,0,.21-1.63c0.02-.2.04-0.4,0.04-0.6a5.45,5.45,0,0,0,0-.7c0-.14.01-0.28,0-0.41l17.81-4.33A11.7,11.7,0,1,0,1927.37,5442.06Zm-82.8-3.61a6.593,6.593,0,1,1,6.11-7.05A6.6,6.6,0,0,1,1844.57,5438.45Zm-6.78,31.85a6.6,6.6,0,1,1-.87-9.28A6.63,6.63,0,0,1,1837.79,5470.3Zm26.43-46.89a6.6,6.6,0,1,1,9.07-2.21A6.6,6.6,0,0,1,1864.22,5423.41Zm21.04,78.95a6.593,6.593,0,1,1-9.29.86A6.585,6.585,0,0,1,1885.26,5502.36Zm1.92-39c0,0.02-.01.04-0.01,0.06a10.216,10.216,0,0,1-.3,1.54,10.05,10.05,0,0,1-1.02,2.31,9.507,9.507,0,0,1-1.27,1.65,6.194,6.194,0,0,1-.67.58,0.435,0.435,0,0,1-.07.06,7.851,7.851,0,0,1-.66.47l-0.18.12c-0.19.12-.39,0.23-0.58,0.33-0.11.06-.22,0.11-0.32,0.17-0.16.07-.33,0.15-0.5,0.22-0.14.06-.29,0.12-0.44,0.17a3.255,3.255,0,0,1-.44.15,4.127,4.127,0,0,1-.5.15c-0.15.04-.3,0.07-0.44,0.1-0.18.04-.34,0.07-0.52,0.1a4.019,4.019,0,0,1-.5.06c-0.16.02-.31,0.04-0.47,0.05-0.18.01-.37,0.01-0.55,0.01-0.15,0-.3.01-0.44,0-0.19-.01-0.37-0.03-0.55-0.04-0.14-.02-0.29-0.03-0.44-0.04-0.18-.03-0.36-0.07-0.54-0.1-0.14-.03-0.28-0.05-0.41-0.09-0.19-.04-0.38-0.1-0.56-0.15-0.13-.04-0.26-0.07-0.38-0.12-0.18-.06-0.37-0.14-0.55-0.21l-0.36-.15c-0.17-.09-0.34-0.17-0.51-0.26-0.12-.07-0.25-0.13-0.37-0.2-0.17-.1-0.33-0.21-0.5-0.33-0.1-.07-0.21-0.13-0.31-0.21-0.18-.12-0.34-0.26-0.51-0.39l-0.24-.21c-0.17-.14-0.32-0.29-0.48-0.45l-0.23-.23c-0.13-.15-0.27-0.31-0.39-0.46-0.09-.1-0.17-0.21-0.25-0.31l-0.3-.42c-0.1-.14-0.19-0.28-0.28-0.43-0.06-.11-0.13-0.22-0.19-0.33-0.1-.19-0.2-0.38-0.29-0.57a2.557,2.557,0,0,1-.11-0.24c-0.1-.23-0.2-0.46-0.28-0.69a1.093,1.093,0,0,1-.05-0.17,7.324,7.324,0,0,1-.23-0.76c-0.01-.05-0.03-0.11-0.04-0.15-0.06-.27-0.11-0.53-0.15-0.8-0.01-.06-0.01-0.12-0.02-0.18-0.03-.21-0.05-0.43-0.06-0.65a9.833,9.833,0,0,1,2.26-6.65,9.968,9.968,0,0,1,1.35-1.33,8.38,8.38,0,0,1,1.13-.73c0.11-.06.23-0.12,0.35-0.18a9.314,9.314,0,0,1,1.48-.59,2.681,2.681,0,0,1,.27-0.07,10.234,10.234,0,0,1,1.65-.32c0.07-.01.14-0.01,0.21-0.02a11.1,11.1,0,0,1,1.73.01,1.5,1.5,0,0,0,.2.02,10.089,10.089,0,0,1,1.72.35,0.88,0.88,0,0,1,.15.05,9.6,9.6,0,0,1,1.67.68l0.15,0.09a11.353,11.353,0,0,1,1.51,1.01l0.03,0.03,1.32,1.32,0.05,0.05c0.06,0.08.13,0.16,0.19,0.24a10.473,10.473,0,0,1,.91,1.4c0.04,0.08.08,0.15,0.12,0.23a9.639,9.639,0,0,1,.64,1.61,0.277,0.277,0,0,1,.03.13,9.023,9.023,0,0,1,.34,1.78,0.2,0.2,0,0,1,.01.07A10.5,10.5,0,0,1,1887.18,5463.36Zm19.82,27.13a6.588,6.588,0,1,1-7.08,6.08A6.606,6.606,0,0,1,1907,5490.49Zm19.94-35.11a6.6,6.6,0,1,1-2.21-9.06A6.629,6.629,0,0,1,1926.94,5455.38Z" transform="translate(-1821 -5396)"/>
</svg>
