<svg xmlns="http://www.w3.org/2000/svg" width="97" height="101" viewBox="0 0 97 101">
  <metadata><?xpacket begin="﻿" id="W5M0MpCehiHzreSzNTczkc9d"?>
<x:xmpmeta xmlns:x="adobe:ns:meta/" x:xmptk="Adobe XMP Core 5.6-c138 79.159824, 2016/09/14-01:09:01        ">
   <rdf:RDF xmlns:rdf="http://www.w3.org/1999/02/22-rdf-syntax-ns#">
      <rdf:Description rdf:about=""/>
   </rdf:RDF>
</x:xmpmeta>
                                                                                                    
                                                                                                    
                                                                                                    
                                                                                                    
                                                                                                    
                                                                                                    
                                                                                                    
                                                                                                    
                                                                                                    
                                                                                                    
                                                                                                    
                                                                                                    
                                                                                                    
                                                                                                    
                                                                                                    
                                                                                                    
                                                                                                    
                                                                                                    
                                                                                                    
                                                                                                    
                           
<?xpacket end="w"?></metadata>
<defs>
    <style>
      .cls-1 {
        fill: #fff;
        fill-rule: evenodd;
      }
    </style>
  </defs>
  <path id="dots" class="cls-1" d="M1839.32,5345.86a12.269,12.269,0,0,0,11.93-9.83h12.19a12.247,12.247,0,0,0,24.25-2.66,12.54,12.54,0,0,0-.66-3.99l21.63-21.92a11.3,11.3,0,0,0,3.02.39,12.522,12.522,0,1,0-8-3.05l-19.4,19.93a12.418,12.418,0,0,0-8.78-3.72,12.269,12.269,0,0,0-11.93,9.83h-12.19a12.247,12.247,0,0,0-24.25,2.66A12.167,12.167,0,0,0,1839.32,5345.86Zm72.36-57.54a7.176,7.176,0,1,1-7.08,7.18A7.186,7.186,0,0,1,1911.68,5288.32Zm-36.18,38.01a7.176,7.176,0,1,1-7.08,7.17A7.1,7.1,0,0,1,1875.5,5326.33Zm-36.18,0a7.176,7.176,0,1,1-7.08,7.17A7.1,7.1,0,0,1,1839.32,5326.33Zm0-56.35a12.491,12.491,0,1,0-12.32-12.49A12.388,12.388,0,0,0,1839.32,5269.98Zm0-19.54a7.181,7.181,0,1,1-7.08,7.18A7.1,7.1,0,0,1,1839.32,5250.44Zm0,57.55a12.388,12.388,0,0,0,12.32-12.49,12.261,12.261,0,0,0-2.23-7.18l19.8-20.07a11.581,11.581,0,0,0,6.29,1.86,12.269,12.269,0,0,0,11.93-9.83h12.19a12.493,12.493,0,1,0,0-5.32h-12.19a12.247,12.247,0,0,0-24.25,2.66,13.015,13.015,0,0,0,2.09,7.04l-19.79,20.07A12.42,12.42,0,1,0,1839.32,5307.99Zm72.36-57.55a7.181,7.181,0,1,1-7.08,7.18A7.273,7.273,0,0,1,1911.68,5250.44Zm-36.18,0a7.181,7.181,0,1,1-7.08,7.18A7.1,7.1,0,0,1,1875.5,5250.44Zm-36.18,37.88a7.176,7.176,0,1,1-7.08,7.18A7.1,7.1,0,0,1,1839.32,5288.32Zm36.18-5.32a12.5,12.5,0,1,0,12.32,12.5A12.4,12.4,0,0,0,1875.5,5283Zm0,19.67a7.176,7.176,0,1,1,7.08-7.17A7.094,7.094,0,0,1,1875.5,5302.67Zm48.5,30.83a12.326,12.326,0,1,0-12.32,12.49A12.394,12.394,0,0,0,1924,5333.5Zm-12.32,7.05a7.181,7.181,0,1,1,7.07-7.18A7.1,7.1,0,0,1,1911.68,5340.55Z" transform="translate(-1827 -5245)"/>
</svg>
