<svg xmlns="http://www.w3.org/2000/svg" width="129" height="111" viewBox="0 0 129 111">
  <metadata><?xpacket begin="﻿" id="W5M0MpCehiHzreSzNTczkc9d"?>
<x:xmpmeta xmlns:x="adobe:ns:meta/" x:xmptk="Adobe XMP Core 5.6-c138 79.159824, 2016/09/14-01:09:01        ">
   <rdf:RDF xmlns:rdf="http://www.w3.org/1999/02/22-rdf-syntax-ns#">
      <rdf:Description rdf:about=""/>
   </rdf:RDF>
</x:xmpmeta>
                                                                                                    
                                                                                                    
                                                                                                    
                                                                                                    
                                                                                                    
                                                                                                    
                                                                                                    
                                                                                                    
                                                                                                    
                                                                                                    
                                                                                                    
                                                                                                    
                                                                                                    
                                                                                                    
                                                                                                    
                                                                                                    
                                                                                                    
                                                                                                    
                                                                                                    
                                                                                                    
                           
<?xpacket end="w"?></metadata>
<defs>
    <style>
      .cls-1 {
        fill: #00945e;
        fill-rule: evenodd;
      }
    </style>
  </defs>
  <path id="heart" class="cls-1" d="M2335.17,1458a9.21,9.21,0,0,1-5.98-2.21s-27.87-23.67-37.01-31.37c-9.52-8.01-17.12-19.37-19.83-29.64a33.628,33.628,0,0,1-1.14-13.26c1.95-19.98,17.15-34.52,36.16-34.52h0.18a35.371,35.371,0,0,1,27.66,13.42,36.591,36.591,0,0,1,28.43-13.42c18.98,0,34.19,14.53,36.14,34.55a33.64,33.64,0,0,1-1.15,13.31c-2.69,10.18-10.55,21.87-20,29.7-9.9,8.2-37.55,31.28-37.55,31.28A9.2,9.2,0,0,1,2335.17,1458Zm-27.63-104.87h-0.16c-15.78,0-28.42,12.21-30.06,29.03a27.633,27.633,0,0,0,.95,10.98c2.39,9.06,9.4,19.47,17.88,26.61,9.14,7.7,37.03,31.39,37.03,31.39a3.057,3.057,0,0,0,3.95.01s27.66-23.1,37.57-31.3c8.53-7.07,15.6-17.52,18.01-26.63a28,28,0,0,0,.97-11.01l-0.01-.05c-1.64-16.82-14.27-29.03-30.04-29.03a30.419,30.419,0,0,0-25.87,14.24l-2.67,4.28-2.58-4.34A29.141,29.141,0,0,0,2307.54,1353.13Zm-0.17,9.18c-12.3,0-19.76,10.28-20.85,20.52a1.983,1.983,0,0,1-.05.84l-0.14.54a2.048,2.048,0,0,1-3.96-1.05l0.03-.14c0-.1,0-0.2.01-0.3,1.16-12.17,10.11-24.49,24.96-24.49A2.04,2.04,0,1,1,2307.37,1362.31Zm31.2,63.65h-6.15a8.194,8.194,0,0,1-8.19-8.16v-4.08h-4.09a8.194,8.194,0,0,1-8.19-8.16v-6.13a8.188,8.188,0,0,1,8.19-8.16h4.09v-4.08a8.194,8.194,0,0,1,8.19-8.16h6.15a8.188,8.188,0,0,1,8.19,8.16v4.08h4.1a8.194,8.194,0,0,1,8.19,8.16v6.13a8.207,8.207,0,0,1-8.19,8.16h-4.1v4.08A8.181,8.181,0,0,1,2338.57,1425.96Zm-18.43-28.57a2.053,2.053,0,0,0-2.05,2.05v6.12a2.042,2.042,0,0,0,2.05,2.03h10.24v10.21a2.051,2.051,0,0,0,2.05,2.04h6.14a2.057,2.057,0,0,0,2.05-2.04v-10.21h10.24a2.042,2.042,0,0,0,2.04-2.04v-6.12a2.049,2.049,0,0,0-2.04-2.04h-10.24v-10.2a2.044,2.044,0,0,0-2.05-2.04h-6.15a2.042,2.042,0,0,0-2.04,2.04v10.2h-10.24Z" transform="translate(-2271 -1347)"/>
</svg>
