<svg xmlns="http://www.w3.org/2000/svg" width="102" height="148" viewBox="0 0 102 148">
  <metadata><?xpacket begin="﻿" id="W5M0MpCehiHzreSzNTczkc9d"?>
<x:xmpmeta xmlns:x="adobe:ns:meta/" x:xmptk="Adobe XMP Core 5.6-c138 79.159824, 2016/09/14-01:09:01        ">
   <rdf:RDF xmlns:rdf="http://www.w3.org/1999/02/22-rdf-syntax-ns#">
      <rdf:Description rdf:about=""/>
   </rdf:RDF>
</x:xmpmeta>
                                                                                                    
                                                                                                    
                                                                                                    
                                                                                                    
                                                                                                    
                                                                                                    
                                                                                                    
                                                                                                    
                                                                                                    
                                                                                                    
                                                                                                    
                                                                                                    
                                                                                                    
                                                                                                    
                                                                                                    
                                                                                                    
                                                                                                    
                                                                                                    
                                                                                                    
                                                                                                    
                           
<?xpacket end="w"?></metadata>
<defs>
    <style>
      .cls-1 {
        fill: #00945e;
        fill-rule: evenodd;
      }
    </style>
  </defs>
  <path id="juice" class="cls-1" d="M1874.03,1435.19a15.946,15.946,0,0,0,1.69-.09,14.79,14.79,0,0,0,3.23-.67,14.373,14.373,0,0,0,3.4.77c0.52,0.05,1.09.08,1.66,0.08,9.67,0,18.31-8.77,20.1-20.4,1.05-6.88-.47-13.58-4.18-18.39a16.659,16.659,0,0,0-7.94-5.73c0.07-.19.14-0.39,0.2-0.59a8.079,8.079,0,0,0-.75-6.46,8.4,8.4,0,0,0-7.2-4.16,8.207,8.207,0,0,0-4.09,1.11,15.509,15.509,0,0,0-2.13,1.47,17.169,17.169,0,0,0-10.13-3.22c-0.23,0-.46,0-0.69.01l-5.5.21-0.18,5.47a17.445,17.445,0,0,0,1.42,7.53,16.928,16.928,0,0,0-4.79,4.22c-3.75,4.79-5.3,11.51-4.23,18.44C1855.71,1426.42,1864.35,1435.19,1874.03,1435.19Zm-4.15-39.28a8.125,8.125,0,0,1,1.1-.07,11.3,11.3,0,0,1,5.71,1.67,6.854,6.854,0,0,1,.19-1.23,11.11,11.11,0,0,1-9.46-11.49c0.16-.01.32-0.01,0.47-0.01a10.8,10.8,0,0,1,10.32,6.89,11.982,11.982,0,0,1,4.92-5.94,2.259,2.259,0,0,1,1.11-.3,2.491,2.491,0,0,1,2.11,1.24,2.357,2.357,0,0,1-.95,3.21c-2.55,1.41-3.6,5.18-3.88,7.53a12.176,12.176,0,0,1,5.76-1.54,8.124,8.124,0,0,1,.86.04c7.01,0.75,11.55,8.85,10.13,18.09-1.35,8.76-7.56,15.41-14.26,15.41a9.593,9.593,0,0,1-1.07-.06,8.845,8.845,0,0,1-2.74-.75,3.915,3.915,0,0,0-1.32-.25,2.469,2.469,0,0,0-1.14.25,8.6,8.6,0,0,1-2.65.66,9.55,9.55,0,0,1-1.06.06c-6.63,0-12.93-6.65-14.28-15.42C1858.33,1404.67,1862.88,1396.57,1869.88,1395.91ZM1930,1373.4l-10.06-22.56h-12.85l1.11-12.41,15.04-9.66a5.865,5.865,0,0,0-1.93-10.65,5.757,5.757,0,0,0-4.47.9l-17.45,11.16a5.671,5.671,0,0,0-2.61,4.51l-1.51,16.15h-57.06L1828,1373.4h8.06l10.27,92.6h65.49l10.26-92.6H1930Zm-87.98-16.69h74.09l4.81,10.81h-83.79Zm64.51,103.41h-54.92L1842,1373.4h74.15Z" transform="translate(-1828 -1318)"/>
</svg>
