<svg xmlns="http://www.w3.org/2000/svg" width="125" height="101" viewBox="0 0 125 101">
  <metadata><?xpacket begin="﻿" id="W5M0MpCehiHzreSzNTczkc9d"?>
<x:xmpmeta xmlns:x="adobe:ns:meta/" x:xmptk="Adobe XMP Core 5.6-c138 79.159824, 2016/09/14-01:09:01        ">
   <rdf:RDF xmlns:rdf="http://www.w3.org/1999/02/22-rdf-syntax-ns#">
      <rdf:Description rdf:about=""/>
   </rdf:RDF>
</x:xmpmeta>
                                                                                                    
                                                                                                    
                                                                                                    
                                                                                                    
                                                                                                    
                                                                                                    
                                                                                                    
                                                                                                    
                                                                                                    
                                                                                                    
                                                                                                    
                                                                                                    
                                                                                                    
                                                                                                    
                                                                                                    
                                                                                                    
                                                                                                    
                                                                                                    
                                                                                                    
                                                                                                    
                           
<?xpacket end="w"?></metadata>
<defs>
    <style>
      .cls-1 {
        fill: #fff;
        fill-rule: evenodd;
      }
    </style>
  </defs>
  <path id="payment" class="cls-1" d="M2322.39,5333.96a17.5,17.5,0,1,0-17.49-17.5A17.532,17.532,0,0,0,2322.39,5333.96Zm-6.08-10.52a9.126,9.126,0,0,1,.5-1.78c0.26-.63.38-0.76,1.02-0.38a9.981,9.981,0,0,0,3.3,1.02,4.05,4.05,0,0,0,2.15-.26,1.634,1.634,0,0,0,.38-2.91,9.678,9.678,0,0,0-1.27-.76c-1.14-.51-2.28-0.89-3.42-1.53a4.585,4.585,0,0,1-2.66-4.56c0.12-2.41,1.52-3.81,3.68-4.69,0.88-.38.88-0.26,0.88-1.27v-1.01c0-.77.13-0.89,0.89-0.89h0.63c1.53,0,1.53,0,1.53,1.52,0,1.01,0,1.01,1.01,1.27a14.906,14.906,0,0,1,2.28.63,0.657,0.657,0,0,1,.38.89,10.845,10.845,0,0,1-.63,1.9c-0.26.63-.38,0.63-1.02,0.38a9.038,9.038,0,0,0-3.67-.76,3.175,3.175,0,0,0-1.02.25,1.462,1.462,0,0,0-.38,2.54,7.234,7.234,0,0,0,1.65.89,20.257,20.257,0,0,1,2.92,1.27,5.184,5.184,0,0,1,1.64,7.98,6.563,6.563,0,0,1-2.91,1.91,0.829,0.829,0,0,0-.76.88v1.53a0.648,0.648,0,0,1-.64.76h-1.64a0.68,0.68,0,0,1-.77-0.76v-1.15c0-.88,0-0.88-0.88-1.01a7.814,7.814,0,0,1-2.92-.89C2316.18,5324.45,2316.18,5324.2,2316.31,5323.44Zm-24.1-5.96a4.82,4.82,0,1,1,4.82,4.82A4.816,4.816,0,0,1,2292.21,5317.48Zm50.85,0a4.82,4.82,0,1,1,4.82,4.82A4.816,4.816,0,0,1,2343.06,5317.48Zm56.56-5.84-24.48,24.48v-9.13l9.26-9.26-9.26-9.26v-12.3a12.518,12.518,0,0,0-.38-3.17l17.25,17.25,3.04-3.04a1.847,1.847,0,0,0,0-2.67l-53.38-53.51a1.835,1.835,0,0,0-2.66,0l-3.05,3.04,28.28,28.28a12.928,12.928,0,0,0-3.17-.38h-12.3l-20.29-20.29-18.01,17.88a1.922,1.922,0,0,0-.25,2.41h-6.72a8.52,8.52,0,0,1,2.41-6.97l28.53-28.53a8.258,8.258,0,0,1,11.79,0l53.39,53.38A8.5,8.5,0,0,1,2399.62,5311.64Zm-114.63,33.35h76.08a7.953,7.953,0,0,0,7.99-7.98v-40.96a7.955,7.955,0,0,0-7.99-7.99h-76.08a7.955,7.955,0,0,0-7.99,7.99v40.96A7.953,7.953,0,0,0,2284.99,5344.99Zm-1.15-40.32a9.718,9.718,0,0,0,2.03.25,8.092,8.092,0,0,0,8.12-8.11,11.612,11.612,0,0,0-.25-2.03h59.21a6.5,6.5,0,0,0-.12,1.52,8.092,8.092,0,0,0,8.11,8.12,4.667,4.667,0,0,0,1.4-.13v24.47a5.527,5.527,0,0,0-1.4-.12,8.083,8.083,0,0,0-8.11,8.11,6.458,6.458,0,0,0,.12,1.52h-59.09v-1.01a8.092,8.092,0,0,0-8.11-8.12,10.746,10.746,0,0,0-2.03.26v-24.73h0.12Z" transform="translate(-2277 -5244)"/>
</svg>
