<svg xmlns="http://www.w3.org/2000/svg" width="110" height="111" viewBox="0 0 110 111">
  <metadata><?xpacket begin="﻿" id="W5M0MpCehiHzreSzNTczkc9d"?>
<x:xmpmeta xmlns:x="adobe:ns:meta/" x:xmptk="Adobe XMP Core 5.6-c138 79.159824, 2016/09/14-01:09:01        ">
   <rdf:RDF xmlns:rdf="http://www.w3.org/1999/02/22-rdf-syntax-ns#">
      <rdf:Description rdf:about=""/>
   </rdf:RDF>
</x:xmpmeta>
                                                                                                    
                                                                                                    
                                                                                                    
                                                                                                    
                                                                                                    
                                                                                                    
                                                                                                    
                                                                                                    
                                                                                                    
                                                                                                    
                                                                                                    
                                                                                                    
                                                                                                    
                                                                                                    
                                                                                                    
                                                                                                    
                                                                                                    
                                                                                                    
                                                                                                    
                                                                                                    
                           
<?xpacket end="w"?></metadata>
<defs>
    <style>
      .cls-1 {
        fill: #00945e;
        fill-rule: evenodd;
      }
    </style>
  </defs>
  <path id="salad" class="cls-1" d="M2052.42,1596.48c-0.8,5.53,3.89,12.63,8.96,16.07-6.06.85-9.96,5.77-11.33,8.78a0.053,0.053,0,0,0-.02.03,0.594,0.594,0,0,1-.04.08,2.589,2.589,0,0,0-.14.45,0.261,0.261,0,0,0-.03.08l-0.01.01V1622c-0.22,1.01-4.2,19.74,7.68,34.61a38.517,38.517,0,0,0,10.8,9.22l2.05,9.39a2.9,2.9,0,0,0,1.62,2c8.37,3.81,18.94,5.75,31.4,5.77,0.09,0,.17.01,0.25,0.01,13.01,0,23.93-2.03,32.45-6.02a2.86,2.86,0,0,0,1.63-2.26l0.97-8.04a37.3,37.3,0,0,0,14.53-13.24c8.95-14.4,4.92-30.85,4.75-31.54a2.844,2.844,0,0,0-1.45-1.83,2.792,2.792,0,0,0-1.18-.33c0.78-3.67.2-7.32-1.81-9.84-1.57-1.97-5.36-4.91-13.06-2.42a2.816,2.816,0,0,0-1.42,1.03c2.03-6.23,2.19-15.83-.8-21.11a8.022,8.022,0,0,0-4.56-3.95c-0.39-4.75-2.37-8.42-5.64-10.26a9.765,9.765,0,0,0-10.19.52,11.614,11.614,0,0,0-4.91,7.63,9.9,9.9,0,0,0-8.46,1.39c-2.98,2.1-4.68,5.7-5.07,10.22a8.008,8.008,0,0,0-2.75-1.07,14.929,14.929,0,0,0-7.79-12.85,10.784,10.784,0,0,0-12.1.82c-5.47-5.8-11-5.97-14.32-4.12-3.61,2.02-6.02,7.13-4.19,14.43A7.515,7.515,0,0,0,2052.42,1596.48Zm9.47,21.79a15.66,15.66,0,0,0,1.84,5.7c-2.96-.98-5.26-1.89-6.9-2.59A8.7,8.7,0,0,1,2061.89,1618.27Zm86.39,32.19c-4.94,7.91-13.47,13.22-25.38,15.78a2.873,2.873,0,0,0,.6,5.68,2.539,2.539,0,0,0,.61-0.07,62.194,62.194,0,0,0,8.43-2.45l-0.36,3.03c-7.55,3.21-17.15,4.83-28.56,4.83h-0.24c-10.99-.03-20.31-1.61-27.73-4.7l-0.78-3.56c7.96,3.14,17.64,4.75,29.01,4.77h0a2.87,2.87,0,1,0,.01-5.74c-19.86-.04-33.95-5.07-41.87-14.95-7.38-9.2-7.57-20.56-7.08-26.24,6.88,2.92,23.04,8.57,45.5,8.87h0.03a2.325,2.325,0,0,0,.28-0.05,26.459,26.459,0,0,0,13.05,3.91,17.578,17.578,0,0,0,5.3-.8,28.291,28.291,0,0,0,10.46,2.13,16.6,16.6,0,0,0,9.59-2.66,10.272,10.272,0,0,0,4.33-6.91c3.2-.27,9.41-4.86,9.41-4.86C2153.51,1631.5,2153.8,1641.61,2148.28,1650.46Zm-44.99-34.38a5.06,5.06,0,1,1-5.07,5.06A5.074,5.074,0,0,1,2103.29,1616.08Zm10.82,5.06c0-.25-0.06,5.94,7.14,10.02-4.96,4.09-10.93,2.86-15.71.54A10.835,10.835,0,0,0,2114.11,1621.14Zm13.32,11.64c0.1,0,.19.02,0.29,0.02a13.551,13.551,0,0,0,8.96-3.39,2.87,2.87,0,0,0,1.03,1.29,4.543,4.543,0,0,1-1.87,2.85c-2.2,1.55-6.07,1.93-10.02,1.23,0.34-.32.68-0.64,1.01-0.99A2.912,2.912,0,0,0,2127.43,1632.78Zm8.14-13.55a7.845,7.845,0,1,1-7.84-7.84A7.851,7.851,0,0,1,2135.57,1619.23Zm6.64-6.29c1.89-.61,5.29-1.35,6.8.54,1.41,1.77,1.15,5.43-.59,8.33-0.04.08-8.44,3.25-8.44,3.25a13.382,13.382,0,0,0-.56-12.71A2.861,2.861,0,0,0,2142.21,1612.94Zm-34.44-25.52c1.54-1.28,3.9-.9,6.2.7a2.911,2.911,0,0,0,3.12.11,2.872,2.872,0,0,0,1.38-2.8c-0.36-3.1.57-5.63,2.55-6.94a4,4,0,0,1,4.17-.3c1.92,1.08,2.94,3.91,2.77,7.76a2.874,2.874,0,0,0,.95,2.25,2.815,2.815,0,0,0,2.34.7c0.43-.06,1.12-0.16,1.96,1.32,2.28,4.03,1.83,12.34.32,16.75a13.537,13.537,0,0,0-19.05,9.3,27.934,27.934,0,0,1,2.73-10.45c2.01-3.73,4.04-4.72,6.03-4.53a2.872,2.872,0,1,0,.53-5.72,9.686,9.686,0,0,0-2.78.17c0.28-.66.56-1.29,0.84-1.98a2.874,2.874,0,0,0-5.31-2.2c-0.63,1.51-5.95,10.09-7.39,20.51a10.968,10.968,0,0,0-4.41-1.59S2103.09,1591.35,2107.77,1587.42Zm-49.66,9.87c0.07-.46.26-1.84,3.96-1.89a2.865,2.865,0,0,0,2.64-3.93c-2.25-5.6-1.44-9.63.53-10.72,1.8-1,5.38.16,9,5.05a2.889,2.889,0,0,0,2.29,1.17h0.03a2.847,2.847,0,0,0,2.27-1.12c2.56-3.31,5.38-2.78,7.3-1.76,3.14,1.68,5.73,5.86,4.42,9.68a2.875,2.875,0,0,0,3.18,3.76,3.4,3.4,0,0,1,2.98.54c2.31,1.97,2.28,8.27,2.27,12.03l-0.01,1.15a10.787,10.787,0,0,0-6.5,9.89c0,0.31.07,0.6,0.1,0.91-0.55-.77-1.11-1.56-1.69-2.36a2.846,2.846,0,0,0,1.57-2.52v-12.25a2.875,2.875,0,0,0-5.75,0v8.88q-1.77-2.52-3.51-5.06a88.659,88.659,0,0,0,2.03-10.07,2.88,2.88,0,0,0-5.74-.48,30.775,30.775,0,0,1-.67,3.97v0.02c-0.68-1.06-1.34-2.1-1.95-3.09a2.875,2.875,0,0,0-4.9,3.01c1.86,3,4.06,6.34,6.38,9.73a21.321,21.321,0,0,0-6.76,2.1,2.876,2.876,0,0,0,2.77,5.04,18.55,18.55,0,0,1,7.72-1.77c2.58,3.67,5.13,7.22,7.33,10.3a2.877,2.877,0,0,0,2.34,1.19,2.8,2.8,0,0,0,1.67-.54,2.688,2.688,0,0,0,.87-1.06,10.694,10.694,0,0,0,2.68,2.77,126.677,126.677,0,0,1-21.49-2.71c0.18-.13,2.72-1.97,1.14-4.37a2.82,2.82,0,0,0-4.02-.59c-1.74,1.27-2.45.63-2.88,0.24-2.09-1.89-2.96-7.09-1.57-9.43a2.854,2.854,0,0,0-1.63-4.21C2062.55,1607.58,2057.61,1600.81,2058.11,1597.29Zm71.84,22.64a2.87,2.87,0,1,0,0-5.74h-0.02A2.87,2.87,0,0,0,2129.95,1619.93Z" transform="translate(-2049 -1572)"/>
</svg>
