<svg xmlns="http://www.w3.org/2000/svg" width="111" height="97" viewBox="0 0 111 97">
  <metadata><?xpacket begin="﻿" id="W5M0MpCehiHzreSzNTczkc9d"?>
<x:xmpmeta xmlns:x="adobe:ns:meta/" x:xmptk="Adobe XMP Core 5.6-c138 79.159824, 2016/09/14-01:09:01        ">
   <rdf:RDF xmlns:rdf="http://www.w3.org/1999/02/22-rdf-syntax-ns#">
      <rdf:Description rdf:about=""/>
   </rdf:RDF>
</x:xmpmeta>
                                                                                                    
                                                                                                    
                                                                                                    
                                                                                                    
                                                                                                    
                                                                                                    
                                                                                                    
                                                                                                    
                                                                                                    
                                                                                                    
                                                                                                    
                                                                                                    
                                                                                                    
                                                                                                    
                                                                                                    
                                                                                                    
                                                                                                    
                                                                                                    
                                                                                                    
                                                                                                    
                           
<?xpacket end="w"?></metadata>
<defs>
    <style>
      .cls-1 {
        fill: #303030;
        fill-rule: evenodd;
      }
    </style>
  </defs>
  <path id="stats-dark" class="cls-1" d="M1950,8035.73V7960H1839v75.73h40.67v13.1h-5.76a3.039,3.039,0,0,0-3.05,3.06V8057h47.11v-5.11a3.045,3.045,0,0,0-3.05-3.06h-5.76v-13.1H1950Zm-2.54-73.18v61.95H1841.54v-61.95h105.92Zm-105.92,70.63v-6.13h105.92v6.13H1841.54Zm73.38,18.03a0.543,0.543,0,0,1,.51.51v2.56H1873.4v-2.56a0.543,0.543,0,0,1,.51-0.51h41.01Zm-8.14-2.55h-24.57v-13.1h24.57v13.1Zm15.09-37.78,6.77,6.81,6.44-6.47-6.77-6.8,4.06-4.09-19.15-4.76,4.75,19.23Zm5.42-9.19-2.54,2.56,6.78,6.8-2.89,2.9-6.77-6.81-2.54,2.55-2.55-10.72Zm-37.62,18.72h11.35v-40.67h-11.35v40.67Zm2.54-38.12h6.27v35.57h-6.27v-35.57Zm-16.61,38.12h11.36v-28.93H1875.6v28.93Zm2.55-26.54h6.26v23.82h-6.26v-23.82Zm-16.44,26.54h11.35v-24.33h-11.35v24.33Zm2.54-21.78h6.27v19.23h-6.27v-19.23Zm-5.26,2.89h-11.18v18.72h11.35v-18.72h-0.17Zm-2.54,16.34h-6.1v-13.61h6.27v13.61h-0.17Zm31.86-46.97,2.2,4.6,2.38-1.02-4.07-8.68-8.81,4.08,1.02,2.38,4.74-2.21c-8.47,21.95-33.72,21.44-34.91,21.27l0.17,2.56h0.34C1854.76,7993.87,1879.67,7993.01,1888.31,7970.89Z" transform="translate(-1839 -7960)"/>
</svg>
