<svg xmlns="http://www.w3.org/2000/svg" width="121" height="110" viewBox="0 0 121 110">
  <metadata><?xpacket begin="﻿" id="W5M0MpCehiHzreSzNTczkc9d"?>
<x:xmpmeta xmlns:x="adobe:ns:meta/" x:xmptk="Adobe XMP Core 5.6-c138 79.159824, 2016/09/14-01:09:01        ">
   <rdf:RDF xmlns:rdf="http://www.w3.org/1999/02/22-rdf-syntax-ns#">
      <rdf:Description rdf:about=""/>
   </rdf:RDF>
</x:xmpmeta>
                                                                                                    
                                                                                                    
                                                                                                    
                                                                                                    
                                                                                                    
                                                                                                    
                                                                                                    
                                                                                                    
                                                                                                    
                                                                                                    
                                                                                                    
                                                                                                    
                                                                                                    
                                                                                                    
                                                                                                    
                                                                                                    
                                                                                                    
                                                                                                    
                                                                                                    
                                                                                                    
                           
<?xpacket end="w"?></metadata>
<defs>
    <style>
      .cls-1 {
        fill: #00945e;
        fill-rule: evenodd;
      }
    </style>
  </defs>
  <path id="touchscreen" class="cls-1" d="M1864.34,1229.06a4.366,4.366,0,1,1,6.17-6.18h0l14.23,14.27h1.75v-53.06a4.36,4.36,0,1,1,8.72,0h0v38.07h1.74V1203.8a4.36,4.36,0,1,1,8.72,0h0v21.17h1.74v-20.84a4.355,4.355,0,0,1,6.98,3.49h0v20.16h1.74v-15.46a4.355,4.355,0,0,1,6.98,3.5h0l-0.03,27.85a18.3,18.3,0,0,1-31.26,12.95h0Zm73.14-77.06H1827.51a5.525,5.525,0,0,0-5.51,5.53v85.24a5.533,5.533,0,0,0,5.51,5.54h51.06l-7.16-7.19h-42.25v-81.94h106.67v81.94h-8.84v2.52a25.025,25.025,0,0,1-.44,4.66h10.93a5.533,5.533,0,0,0,5.52-5.53v-85.24a5.5,5.5,0,0,0-1.62-3.91A5.435,5.435,0,0,0,1937.48,1152Zm-37.91,32.09v9.77a13.08,13.08,0,1,0-17.44,0h0v-9.77a8.72,8.72,0,1,1,17.44,0h0Z" transform="translate(-1822 -1152)"/>
</svg>
