<svg xmlns="http://www.w3.org/2000/svg" width="120" height="175" viewBox="0 0 120 175">
  <metadata><?xpacket begin="﻿" id="W5M0MpCehiHzreSzNTczkc9d"?>
<x:xmpmeta xmlns:x="adobe:ns:meta/" x:xmptk="Adobe XMP Core 5.6-c138 79.159824, 2016/09/14-01:09:01        ">
   <rdf:RDF xmlns:rdf="http://www.w3.org/1999/02/22-rdf-syntax-ns#">
      <rdf:Description rdf:about=""/>
   </rdf:RDF>
</x:xmpmeta>
                                                                                                    
                                                                                                    
                                                                                                    
                                                                                                    
                                                                                                    
                                                                                                    
                                                                                                    
                                                                                                    
                                                                                                    
                                                                                                    
                                                                                                    
                                                                                                    
                                                                                                    
                                                                                                    
                                                                                                    
                                                                                                    
                                                                                                    
                                                                                                    
                                                                                                    
                                                                                                    
                           
<?xpacket end="w"?></metadata>
<defs>
    <style>
      .cls-1 {
        fill: #00945e;
        fill-rule: evenodd;
      }
    </style>
  </defs>
  <path class="cls-1" d="M524.487,4641.9a9.825,9.825,0,0,0-3.923,1.1c-8.83,4.12-11.692,18.73-11.72,18.89a26.721,26.721,0,0,0,1.928,15.52c2.4,5.24,3.724,7.77,7.471,7.77,0.226,0,.46-0.01.707-0.03a1.994,1.994,0,0,0,1.562-.9c1.329-2.06-.453-7.21-1.884-11.35-0.314-.91-0.606-1.75-0.838-2.49-1.578-5.07,1.513-15.5,5.605-18.91,2.6-2.17,4.275-6.03,3.518-8.1A2.3,2.3,0,0,0,524.487,4641.9Zm-1.418,9.21c-4.209,3.51-7.386,14.23-5.765,19.45,0.234,0.74.527,1.59,0.845,2.5,1.323,3.82,3.129,9.06,1.936,10.91a1.462,1.462,0,0,1-1.177.67c-3.934.31-5.212-2.08-7.668-7.44a26.245,26.245,0,0,1-1.89-15.23c0.027-.15,2.837-14.49,11.434-18.51a9.283,9.283,0,0,1,3.7-1.05,1.84,1.84,0,0,1,1.946,1.16C527.117,4645.43,525.482,4649.1,523.069,4651.11Zm58.014,61.45A35.721,35.721,0,1,0,617,4748.26,35.852,35.852,0,0,0,581.083,4712.56Zm0,69.4a33.681,33.681,0,1,1,33.866-33.7A33.822,33.822,0,0,1,581.083,4781.96Zm-14.407-59.27a9.667,9.667,0,0,0-3.941,1.12c-8.833,4.08-11.735,18.69-11.766,18.85a27.156,27.156,0,0,0,1.93,15.56c2.311,5.05,3.7,7.68,7.515,7.68,0.222,0,.46-0.01.7-0.03a1.966,1.966,0,0,0,1.58-.87c1.322-2.01-.461-7.12-1.892-11.23-0.332-.94-0.641-1.83-0.883-2.6-1.526-5.09,1.585-15.52,5.645-18.91,2.6-2.17,4.275-6.02,3.522-8.09A2.3,2.3,0,0,0,566.676,4722.69Zm-1.439,9.18c-4.263,3.56-7.41,14.1-5.808,19.45,0.245,0.78.557,1.67,0.89,2.62,1.323,3.79,3.133,8.98,1.947,10.78a1.45,1.45,0,0,1-1.188.64c-4.038.32-5.356-2.21-7.712-7.35a26.693,26.693,0,0,1-1.89-15.27c0.028-.15,2.881-14.5,11.479-18.47a9.143,9.143,0,0,1,3.721-1.07,1.822,1.822,0,0,1,1.926,1.14C569.285,4726.2,567.648,4729.86,565.237,4731.87Zm-39.882-7.13a12.43,12.43,0,1,0,12.534,12.43A12.48,12.48,0,0,0,525.355,4724.74Zm0,23.44a11.01,11.01,0,1,1,11.1-11.01A11.056,11.056,0,0,1,525.355,4748.18Zm-3.16-19.83a3.637,3.637,0,0,0-1.409.38c-3.014,1.44-3.959,6.3-4,6.51a9.32,9.32,0,0,0,.641,5.43c0.8,1.64,1.279,2.63,2.623,2.63,0.1,0,.2-0.01.3-0.02a0.857,0.857,0,0,0,.655-0.38c0.491-.76-0.083-2.44-0.586-3.92-0.108-.31-0.206-0.61-0.285-0.86-0.531-1.64.474-5.13,1.8-6.21,0.843-.72,1.567-2.1,1.253-2.94A0.96,0.96,0,0,0,522.2,4728.35Zm-0.588,3.17c-1.47,1.21-2.549,4.93-1.957,6.75,0.081,0.26.18,0.55,0.289,0.87,0.4,1.17,1,2.93.641,3.49a0.349,0.349,0,0,1-.277.15c-1.219.1-1.569-.6-2.428-2.36a8.792,8.792,0,0,1-.581-5.09c0.008-.05.934-4.81,3.708-6.14a3.088,3.088,0,0,1,1.193-.33,0.46,0.46,0,0,1,.514.28A2.794,2.794,0,0,1,521.607,4731.52Zm71.144-88.66a12.43,12.43,0,1,0-12.509-12.43A12.492,12.492,0,0,0,592.751,4642.86Zm0-23.44a11.01,11.01,0,1,1-11.078,11.01A11.069,11.069,0,0,1,592.751,4619.42Zm-5.3,17.14c0.1,0,.2,0,0.3-0.01a0.859,0.859,0,0,0,.653-0.39c0.491-.75-0.082-2.44-0.585-3.92-0.107-.31-0.208-0.6-0.285-0.86-0.532-1.64.47-5.12,1.8-6.21,0.842-.71,1.565-2.1,1.252-2.94a0.959,0.959,0,0,0-.993-0.62,3.641,3.641,0,0,0-1.408.38c-3.014,1.45-3.96,6.3-4,6.51a9.34,9.34,0,0,0,.638,5.43C585.617,4635.57,586.1,4636.56,587.447,4636.56Zm-2.76-7.97c0.006-.05.934-4.81,3.709-6.14a3.081,3.081,0,0,1,1.19-.33,0.461,0.461,0,0,1,.515.28,2.791,2.791,0,0,1-1.1,2.38c-1.469,1.21-2.545,4.93-1.953,6.75,0.076,0.26.178,0.55,0.285,0.87,0.4,1.17,1,2.93.641,3.48a0.3,0.3,0,0,1-.273.15c-1.213.12-1.574-.59-2.431-2.36A8.812,8.812,0,0,1,584.687,4628.59Zm-18.922,62.62a18.569,18.569,0,1,0,8.039-32.25A35.875,35.875,0,1,0,565.765,4691.21Zm6.971-29.87a33.485,33.485,0,0,1-3.9,23.06,17.371,17.371,0,0,0-1.141-4.58c-0.16-.47-0.311-0.91-0.428-1.3-0.808-2.49.719-7.76,2.724-9.42,1.386-1.17,2.243-3.16,1.837-4.26-0.363-.97-1.579-1.11-3.415-0.28-4.45,2.13-5.85,9.33-5.909,9.63a13.8,13.8,0,0,0,.918,7.99l0.038,0.08c1.209,2.48,1.873,3.84,3.8,3.84,0.137,0,.283-0.01.434-0.02,0.043-.01.072-0.03,0.113-0.04-0.576.89-1.191,1.75-1.85,2.59A16.447,16.447,0,0,1,572.736,4661.34Zm-5.959,17.33c0.12,0.38.27,0.83,0.432,1.31,0.636,1.87,1.506,4.44.939,5.31a0.616,0.616,0,0,1-.5.28c-1.91.18-2.485-.99-3.727-3.53l-0.034-.07a13.282,13.282,0,0,1-.878-7.69c0.014-.07,1.409-7.24,5.622-9.26a4.879,4.879,0,0,1,1.832-.51,0.832,0.832,0,0,1,.887.51c0.327,0.88-.491,2.68-1.686,3.69C567.5,4670.5,565.9,4675.99,566.777,4678.67Zm27.652-1.61a16.629,16.629,0,0,1-27.721,12.26,34.538,34.538,0,0,0,7.018-28.25,16.977,16.977,0,0,1,4.058-.51A16.589,16.589,0,0,1,594.429,4677.06Zm-55.515,24.18a33.705,33.705,0,1,1,32.918-41.73,18.442,18.442,0,0,0-7.548,30.31A33.885,33.885,0,0,1,538.914,4701.24Z" transform="translate(-500 -4613.5)"/>
</svg>
