<svg xmlns="http://www.w3.org/2000/svg" width="114" height="118" viewBox="0 0 114 118">
  <metadata><?xpacket begin="﻿" id="W5M0MpCehiHzreSzNTczkc9d"?>
<x:xmpmeta xmlns:x="adobe:ns:meta/" x:xmptk="Adobe XMP Core 5.6-c138 79.159824, 2016/09/14-01:09:01        ">
   <rdf:RDF xmlns:rdf="http://www.w3.org/1999/02/22-rdf-syntax-ns#">
      <rdf:Description rdf:about=""/>
   </rdf:RDF>
</x:xmpmeta>
                                                                                                    
                                                                                                    
                                                                                                    
                                                                                                    
                                                                                                    
                                                                                                    
                                                                                                    
                                                                                                    
                                                                                                    
                                                                                                    
                                                                                                    
                                                                                                    
                                                                                                    
                                                                                                    
                                                                                                    
                                                                                                    
                                                                                                    
                                                                                                    
                                                                                                    
                                                                                                    
                           
<?xpacket end="w"?></metadata>
<defs>
    <style>
      .cls-1 {
        fill: #00945e;
        fill-rule: evenodd;
      }
    </style>
  </defs>
  <path id="groceries" class="cls-1" d="M6541.85,5446a2.7,2.7,0,0,0-2.34,2.62v10.49a2.665,2.665,0,0,0,.97,2.05,212.909,212.909,0,0,0-2.02,22.49,30.5,30.5,0,0,0-23.29-11.88,33.516,33.516,0,0,0-5.66.41,38.159,38.159,0,0,1,5.05,4.83,25.162,25.162,0,0,1,21.96,13.28c-0.56.85-1.13,1.79-1.74,2.91a33.511,33.511,0,0,0-4.21,13.11h-41.23a25.366,25.366,0,0,1,6.87-21.64c-1.81-.81-3.3-1.6-4.81-2.45a30.788,30.788,0,0,0-7.32,24.09h-5.62a2.623,2.623,0,0,0,.24,5.24v49.82a2.715,2.715,0,0,0,2.59,2.63h103.5a2.715,2.715,0,0,0,2.59-2.63v-49.82a2.62,2.62,0,1,0,0-5.24h-5.3a33.9,33.9,0,0,0-4.08-13.07c-1.11-2.05-2.34-3.88-3.56-5.78a186.436,186.436,0,0,0-2.23-26.3,2.675,2.675,0,0,0,.93-2.05v-10.49a2.7,2.7,0,0,0-2.58-2.62h-28.71Zm2.83,5.24h23.29v5.25h-23.29v-5.25Zm0.97,10.49H6567a181.42,181.42,0,0,1,2.22,22.29h-25.59A195.3,195.3,0,0,1,6545.65,5461.73Zm-67.19,3.11c-1.41,3.52,1.01,6.54,3.11,8.69a48.657,48.657,0,0,0,11.16,8.03,49.83,49.83,0,0,0,12.9,5.08c3.18,0.63,7.76.95,9.54-1.8,1.41-3.53-1-6.57-3.11-8.73a48.6,48.6,0,0,0-11.12-7.99A50.654,50.654,0,0,0,6488,5463C6484.93,5462.4,6480.28,5462.24,6478.46,5464.84Zm8.65,3a44.752,44.752,0,0,1,11.24,4.46,43.442,43.442,0,0,1,9.74,6.97,11.128,11.128,0,0,1,2.07,2.82,13.267,13.267,0,0,1-3.64-.28,45.221,45.221,0,0,1-11.24-4.47,43.442,43.442,0,0,1-9.74-6.97,10.727,10.727,0,0,1-2.07-2.82A12.937,12.937,0,0,1,6487.11,5467.84Zm56.24,21.42h26.11c1.35,2.21,2.94,4.5,4.01,6.48a29.932,29.932,0,0,1,3.15,10.57h-40.59a28.951,28.951,0,0,1,3.28-10.53C6540.59,5493.48,6542.1,5491.4,6543.35,5489.26Zm-59.47,22.29h7.76v7.87h-7.76v-7.87Zm12.93,0h7.77v7.87h-7.77v-7.87Zm12.94,0h7.76v7.87h-7.76v-7.87Zm12.94,0h7.76v7.87h-7.76v-7.87Zm12.94,0h7.76v7.87h-7.76v-7.87Zm12.93,0h7.77v7.87h-7.77v-7.87Zm12.94,0h7.76v7.87h-7.76v-7.87Zm12.94,0h7.76v7.87h-7.76v-7.87Zm-90.56,13.11h7.76v7.87h-7.76v-7.87Zm12.93,0h7.77v7.87h-7.77v-7.87Zm12.94,0h7.76v7.87h-7.76v-7.87Zm12.94,0h7.76v7.87h-7.76v-7.87Zm12.94,0h7.76v7.87h-7.76v-7.87Zm12.93,0h7.77v7.87h-7.77v-7.87Zm12.94,0h7.76v7.87h-7.76v-7.87Zm12.94,0h7.76v7.87h-7.76v-7.87Zm-90.56,13.12h7.76v7.86h-7.76v-7.86Zm12.93,0h7.77v7.86h-7.77v-7.86Zm12.94,0h7.76v7.86h-7.76v-7.86Zm12.94,0h7.76v7.86h-7.76v-7.86Zm12.94,0h7.76v7.86h-7.76v-7.86Zm12.93,0h7.77v7.86h-7.77v-7.86Zm12.94,0h7.76v7.86h-7.76v-7.86Zm12.94,0h7.76v7.86h-7.76v-7.86Zm-90.56,13.11h7.76v7.86h-7.76v-7.86Zm12.93,0h7.77v7.86h-7.77v-7.86Zm12.94,0h7.76v7.86h-7.76v-7.86Zm12.94,0h7.76v7.86h-7.76v-7.86Zm12.94,0h7.76v7.86h-7.76v-7.86Zm12.93,0h7.77v7.86h-7.77v-7.86Zm12.94,0h7.76v7.86h-7.76v-7.86Zm12.94,0h7.76v7.86h-7.76v-7.86Z" transform="translate(-6476 -5446)"/>
</svg>
