<svg xmlns="http://www.w3.org/2000/svg" width="91" height="108" viewBox="0 0 91 108">
  <metadata><?xpacket begin="﻿" id="W5M0MpCehiHzreSzNTczkc9d"?>
<x:xmpmeta xmlns:x="adobe:ns:meta/" x:xmptk="Adobe XMP Core 5.6-c138 79.159824, 2016/09/14-01:09:01        ">
   <rdf:RDF xmlns:rdf="http://www.w3.org/1999/02/22-rdf-syntax-ns#">
      <rdf:Description rdf:about=""/>
   </rdf:RDF>
</x:xmpmeta>
                                                                                                    
                                                                                                    
                                                                                                    
                                                                                                    
                                                                                                    
                                                                                                    
                                                                                                    
                                                                                                    
                                                                                                    
                                                                                                    
                                                                                                    
                                                                                                    
                                                                                                    
                                                                                                    
                                                                                                    
                                                                                                    
                                                                                                    
                                                                                                    
                                                                                                    
                                                                                                    
                           
<?xpacket end="w"?></metadata>
<defs>
    <style>
      .cls-1 {
        fill: #00945e;
        fill-rule: evenodd;
      }
    </style>
  </defs>
  <path id="shield" class="cls-1" d="M6570.18,5023.16a139.783,139.783,0,0,1-38.18-20.99,5.645,5.645,0,0,0-3.69-1.18,5.7,5.7,0,0,0-3.24,1.18,139.754,139.754,0,0,1-38.27,20.99,5.792,5.792,0,0,0-3.8,5.47c0,24.01,4.59,42.14,13.92,55.32,7.58,10.71,17.31,16.94,25.89,22.41l2.59,1.71a5.67,5.67,0,0,0,6.2,0l2.59-1.66c8.58-5.5,18.31-11.72,25.89-22.41,9.33-13.23,13.92-31.36,13.92-55.35A5.8,5.8,0,0,0,6570.18,5023.16Zm-13.89,58.06c-7,9.96-15.97,15.67-24.59,21.23l-2.62,1.64a1.061,1.061,0,0,1-1.16,0l-2.62-1.68c-8.62-5.52-17.5-11.23-24.59-21.23-8.75-12.33-13.04-29.53-13.04-52.58a1.067,1.067,0,0,1,.7-1.02,144.4,144.4,0,0,0,39.46-21.62,1.089,1.089,0,0,1,.67-0.21h0a1.066,1.066,0,0,1,.62.2,144.216,144.216,0,0,0,39.47,21.63,1.093,1.093,0,0,1,.69,1.05C6569.33,5051.65,6565.04,5068.85,6556.29,5081.22Zm-13.36-39.43-18.77,22.24-10.5-10.61a2.318,2.318,0,0,0-3.3,0,2.384,2.384,0,0,0,0,3.34l12.31,12.39a2.278,2.278,0,0,0,1.64.7h0.1a2.332,2.332,0,0,0,1.67-.83l20.42-24.17a2.388,2.388,0,0,0,.17-3.34,2.318,2.318,0,0,0-3.29-.17,2.268,2.268,0,0,0-.38.44Z" transform="translate(-6483 -5001)"/>
</svg>
