<?xml version="1.0" encoding="utf-8"?>
<!-- Generator: Adobe Illustrator 21.0.1, SVG Export Plug-In . SVG Version: 6.00 Build 0)  -->
<svg version="1.1" id="Layer_1" xmlns="http://www.w3.org/2000/svg" xmlns:xlink="http://www.w3.org/1999/xlink" x="0px" y="0px"
	 viewBox="0 0 252 45" style="enable-background:new 0 0 252 45;" xml:space="preserve">
<style type="text/css">
	.st0{fill:#292663;}
	.st1{fill:#80298F;}
	.st2{fill:#403F98;}
</style>
<path class="st0" d="M61.7,17.6l1.4-0.3V7.6l-1.4-0.3V5.7h10.2v3.4h-2.1l-0.1-1.3h-3.9v2.9h2.3c1.6,0,2.8,0.4,3.7,1.1
	c0.9,0.8,1.4,1.8,1.4,3.1c0,1.3-0.5,2.3-1.4,3.1c-0.9,0.8-2.1,1.2-3.7,1.2h-6.5V17.6z M65.9,12.8v4.3h2.3c0.8,0,1.3-0.2,1.8-0.6
	c0.4-0.4,0.6-1,0.6-1.6c0-0.6-0.2-1.1-0.6-1.5c-0.4-0.4-1-0.6-1.8-0.6H65.9z"/>
<path class="st0" d="M82.7,5.7h1.4v1.6l-1.4,0.3v3.1H85c1.6,0,2.8,0.4,3.7,1.1c0.9,0.8,1.4,1.8,1.4,3.1c0,1.3-0.5,2.3-1.4,3.1
	c-0.9,0.8-2.1,1.2-3.7,1.2h-6.5v-1.6l1.4-0.3V7.8h-3.6l-0.1,1.3h-2.1V5.7H82.7z M82.7,12.8v4.3H85c0.8,0,1.3-0.2,1.8-0.6
	c0.4-0.4,0.6-1,0.6-1.6c0-0.6-0.2-1.1-0.6-1.5c-0.4-0.4-1-0.6-1.8-0.6H82.7z"/>
<path class="st0" d="M95.6,7.8l0,4.1c0,2.6-0.4,4.5-1.1,5.6c-0.7,1.1-1.9,1.7-3.4,1.7h-0.7v-2.1h0.4c0.8-0.1,1.4-0.5,1.7-1.2
	c0.3-0.7,0.4-2.1,0.5-4.1l0-4.2l-1.4-0.3V5.7h10.6h1.4v1.6l-1.4,0.3v9.7l1.4,0.3v1.6H98v-1.6l1.4-0.3V7.8H95.6z"/>
<path class="st0" d="M104.7,17.6l1.4-0.3V7.6l-1.4-0.3V5.7h10.2v3.4h-2.1l-0.1-1.3h-3.9v9.5l1.4,0.3v1.6h-5.6V17.6z"/>
<path class="st0" d="M113.9,17.6l1-0.1L119,5.7h2.8l4.1,11.7l1,0.1v1.6h-4.6v-1.6l0.9-0.2l-0.6-1.9h-4.4l-0.6,1.9l0.9,0.2v1.6h-4.6
	V17.6z M118.8,13.6h3.1l-1.5-4.8h-0.1L118.8,13.6z"/>
<path class="st0" d="M134.1,5.7c1.5,0,2.8,0.4,3.7,1.2c0.9,0.8,1.3,1.8,1.3,3.1c0,1.3-0.4,2.3-1.3,3.1c-0.9,0.8-2.1,1.2-3.7,1.2
	h-2.3v3l1.4,0.3v1.6h-5.6v-1.6l1.4-0.3V7.6l-1.4-0.3V5.7h1.4H134.1z M131.8,12.2h2.3c0.8,0,1.3-0.2,1.7-0.6c0.4-0.4,0.6-0.9,0.6-1.6
	c0-0.6-0.2-1.2-0.6-1.6c-0.4-0.4-1-0.6-1.7-0.6h-2.3V12.2z"/>
<path class="st0" d="M151,10.3h-2l-0.3-1.8c-0.3-0.3-0.6-0.5-1-0.6c-0.4-0.2-0.9-0.2-1.4-0.2c-1.2,0-2.1,0.4-2.7,1.3
	c-0.6,0.9-1,2-1,3.3v0.5c0,1.4,0.3,2.5,0.9,3.3c0.6,0.9,1.5,1.3,2.7,1.3c0.5,0,1-0.1,1.5-0.2c0.4-0.2,0.8-0.4,1-0.6l0.3-1.8h2v2.7
	c-0.5,0.6-1.2,1.1-2.1,1.5c-0.8,0.4-1.8,0.6-2.8,0.6c-1.8,0-3.3-0.6-4.5-1.9c-1.2-1.3-1.7-2.9-1.7-4.8v-0.5c0-2,0.6-3.6,1.7-4.8
	c1.2-1.3,2.6-1.9,4.5-1.9c1,0,2,0.2,2.8,0.6c0.8,0.4,1.5,0.9,2.1,1.5V10.3z"/>
<path class="st0" d="M152.3,17.6l1.4-0.3V7.6l-1.4-0.3V5.7h5.5v1.6l-1.4,0.3v3.6h1.2l2.5-3.6c0.5-0.8,1-1.3,1.4-1.6
	c0.4-0.3,1-0.4,1.7-0.4c0.3,0,0.6,0,0.9,0.1c0.3,0.1,0.5,0.2,0.8,0.3l-0.5,2c-0.2,0-0.3-0.1-0.4-0.1c-0.1,0-0.2,0-0.3,0
	c-0.3,0-0.5,0.1-0.8,0.2c-0.2,0.2-0.5,0.5-0.9,0.9L160,12l3.7,5.4l1.4,0.2v1.6h-5.4v-1.6l0.8-0.1l-2.5-3.8h-1.6v3.6l1.4,0.3v1.6
	h-5.5V17.6z"/>
<path class="st0" d="M165.7,17.6l1-0.1l4.1-11.7h2.8l4.1,11.7l1,0.1v1.6H174v-1.6l0.9-0.2l-0.6-1.9H170l-0.6,1.9l0.9,0.2v1.6h-4.6
	V17.6z M170.6,13.6h3.1l-1.5-4.8h-0.1L170.6,13.6z"/>
<path class="st0" d="M184.2,17.6l1.4-0.3V7.6l-1.4-0.3V5.7h10.2v3.4h-2.1l-0.1-1.3h-3.9v2.9h2.3c1.6,0,2.8,0.4,3.7,1.1
	c0.9,0.8,1.4,1.8,1.4,3.1c0,1.3-0.5,2.3-1.4,3.1c-0.9,0.8-2.1,1.2-3.7,1.2h-6.5V17.6z M188.4,12.8v4.3h2.3c0.8,0,1.3-0.2,1.8-0.6
	c0.4-0.4,0.6-1,0.6-1.6c0-0.6-0.2-1.1-0.6-1.5c-0.4-0.4-1-0.6-1.8-0.6H188.4z"/>
<path class="st0" d="M196.7,17.6l1-0.1l4.1-11.7h2.8l4.1,11.7l1,0.1v1.6H205v-1.6l0.9-0.2l-0.6-1.9H201l-0.6,1.9l0.9,0.2v1.6h-4.6
	V17.6z M201.6,13.6h3.1l-1.5-4.8h-0.1L201.6,13.6z"/>
<path class="st0" d="M210.5,7.4V5.7h5.6v1.6l-1.4,0.3v3.9h5.5V7.6l-1.4-0.3V5.7h1.4h2.7h1.4v1.6l-1.4,0.3v9.7l1.4,0.3v1.6h-5.6v-1.6
	l1.4-0.3v-3.7h-5.5v3.7l1.4,0.3v1.6h-5.6v-1.6l1.4-0.3V7.6L210.5,7.4z"/>
<path class="st0" d="M225.3,17.6l1.4-0.3V7.6l-1.4-0.3V5.7h5.5v1.6l-1.4,0.3v3.6h1.2l2.5-3.6c0.5-0.8,1-1.3,1.4-1.6
	c0.4-0.3,1-0.4,1.7-0.4c0.3,0,0.6,0,0.9,0.1c0.3,0.1,0.5,0.2,0.8,0.3l-0.5,2c-0.2,0-0.3-0.1-0.4-0.1c-0.1,0-0.2,0-0.3,0
	c-0.3,0-0.5,0.1-0.8,0.2c-0.2,0.2-0.5,0.5-0.9,0.9L233,12l3.7,5.4l1.4,0.2v1.6h-5.4v-1.6l0.8-0.1l-2.5-3.8h-1.6v3.6l1.4,0.3v1.6
	h-5.5V17.6z"/>
<path class="st0" d="M238.8,17.6l1-0.1l4.1-11.7h2.8l4.1,11.7l1,0.1v1.6h-4.6v-1.6l0.9-0.2l-0.6-1.9H243l-0.6,1.9l0.9,0.2v1.6h-4.6
	V17.6z M243.7,13.6h3.1l-1.5-4.8h-0.1L243.7,13.6z"/>
<path class="st0" d="M66.7,31.3c0.7,0,1.3-0.2,1.6-0.5c0.3-0.3,0.5-0.8,0.5-1.4c0-0.5-0.2-1-0.6-1.3c-0.4-0.3-1-0.5-1.8-0.5
	c-0.5,0-1,0.1-1.4,0.2c-0.4,0.2-0.7,0.4-1,0.6l-0.3,1.7h-2v-2.6c0.5-0.6,1.2-1.1,2.1-1.5c0.8-0.4,1.8-0.6,2.8-0.6
	c1.5,0,2.7,0.3,3.6,1c0.9,0.7,1.3,1.6,1.3,2.9c0,0.6-0.2,1.2-0.6,1.7c-0.4,0.5-0.9,0.9-1.5,1.2c0.7,0.3,1.3,0.7,1.7,1.2
	c0.4,0.5,0.6,1.2,0.6,2c0,1.2-0.5,2.2-1.4,2.9c-1,0.7-2.2,1.1-3.7,1.1c-1.4,0-2.5-0.3-3.5-1c-1-0.7-1.5-1.6-1.4-2.9l0-0.1h2.6
	c0,0.5,0.2,1,0.6,1.3c0.4,0.4,1,0.5,1.7,0.5c0.8,0,1.4-0.2,1.8-0.5c0.4-0.4,0.7-0.8,0.7-1.4c0-0.7-0.2-1.2-0.6-1.6
	c-0.4-0.3-1-0.5-1.7-0.5h-1.6v-2H66.7z"/>
<path class="st0" d="M72.8,37.6l1-0.1l4.1-11.7h2.8l4.1,11.7l1,0.1v1.6h-4.6v-1.6l0.9-0.2l-0.6-1.9h-4.4l-0.6,1.9l0.9,0.2v1.6h-4.6
	V37.6z M77.7,33.6h3.1l-1.5-4.8h-0.1L77.7,33.6z"/>
<path class="st0" d="M97.7,25.7c1.5,0,2.8,0.4,3.7,1.2c0.9,0.8,1.3,1.8,1.3,3.1c0,1.3-0.4,2.3-1.3,3.1c-0.9,0.8-2.1,1.2-3.7,1.2
	h-2.3v3l1.4,0.3v1.6h-5.6v-1.6l1.4-0.3v-9.7l-1.4-0.3v-1.6h1.4H97.7z M95.4,32.2h2.3c0.8,0,1.3-0.2,1.7-0.6c0.4-0.4,0.6-0.9,0.6-1.6
	c0-0.6-0.2-1.2-0.6-1.6c-0.4-0.4-1-0.6-1.7-0.6h-2.3V32.2z"/>
<path class="st0" d="M101.2,37.6l1-0.1l4.1-11.7h2.8l4.1,11.7l1,0.1v1.6h-4.6v-1.6l0.9-0.2l-0.6-1.9h-4.4l-0.6,1.9l0.9,0.2v1.6h-4.6
	V37.6z M106.1,33.6h3.1l-1.5-4.8h-0.1L106.1,33.6z"/>
<path class="st0" d="M120.1,31.3c0.7,0,1.3-0.2,1.6-0.5c0.3-0.3,0.5-0.8,0.5-1.4c0-0.5-0.2-1-0.6-1.3c-0.4-0.3-1-0.5-1.8-0.5
	c-0.5,0-1,0.1-1.4,0.2c-0.4,0.2-0.7,0.4-1,0.6l-0.3,1.7h-2v-2.6c0.5-0.6,1.2-1.1,2-1.5c0.8-0.4,1.8-0.6,2.8-0.6c1.5,0,2.7,0.3,3.6,1
	c0.9,0.7,1.3,1.6,1.3,2.9c0,0.6-0.2,1.2-0.6,1.7c-0.4,0.5-0.9,0.9-1.5,1.2c0.7,0.3,1.3,0.7,1.7,1.2c0.4,0.5,0.6,1.2,0.6,2
	c0,1.2-0.5,2.2-1.4,2.9c-1,0.7-2.2,1.1-3.7,1.1c-1.4,0-2.5-0.3-3.5-1c-1-0.7-1.5-1.6-1.4-2.9l0-0.1h2.6c0,0.5,0.2,1,0.6,1.3
	c0.4,0.4,1,0.5,1.7,0.5c0.8,0,1.4-0.2,1.8-0.5c0.4-0.4,0.7-0.8,0.7-1.4c0-0.7-0.2-1.2-0.6-1.6c-0.4-0.3-1-0.5-1.7-0.5h-1.6v-2H120.1
	z"/>
<path class="st0" d="M132.3,25.7c1.6,0,2.8,0.3,3.7,0.9c0.9,0.6,1.3,1.5,1.3,2.8c0,0.6-0.2,1.2-0.5,1.7c-0.3,0.5-0.8,0.9-1.4,1.1
	c0.8,0.2,1.4,0.5,1.8,1.1c0.4,0.6,0.6,1.2,0.6,2c0,1.3-0.4,2.3-1.3,2.9c-0.9,0.7-2.1,1-3.6,1h-6.6v-1.6l1.4-0.3v-9.7l-1.4-0.3v-1.6
	h1.4H132.3z M130.5,31.4h1.9c0.7,0,1.3-0.1,1.7-0.4c0.4-0.3,0.6-0.7,0.6-1.3c0-0.6-0.2-1.1-0.6-1.4c-0.4-0.3-1-0.4-1.8-0.4h-1.9
	V31.4z M130.5,33.3v3.9h2.5c0.7,0,1.3-0.2,1.6-0.5c0.4-0.3,0.6-0.8,0.6-1.4c0-0.7-0.2-1.2-0.5-1.5c-0.3-0.3-0.8-0.5-1.5-0.5H130.5z"
	/>
<path class="st0" d="M144.6,25.7v1.6l-1.4,0.3v6.3l0.1,0l5.4-5.5v-0.8l-1.4-0.3v-1.6h1.4h2.7h1.4v1.6l-1.4,0.3v9.7l1.4,0.3v1.6h-5.6
	v-1.6l1.4-0.3v-6.1l-0.1,0l-5.4,5.5v0.6l1.4,0.3v1.6H139v-1.6l1.4-0.3v-9.7l-1.4-0.3v-1.6h1.4h2.7H144.6z"/>
<path class="st0" d="M165.7,25.7v3.6h-2.1l-0.1-1.5H161v9.5l1.4,0.3v1.6h-5.6v-1.6l1.4-0.3v-9.5h-2.5l-0.1,1.5h-2.1v-3.6H165.7z"/>
<path class="st0" d="M172.3,25.7v1.6l-1.4,0.3v6.3l0.1,0l5.4-5.5v-0.8l-1.4-0.3v-1.6h1.4h2.7h1.4v1.6l-1.4,0.3v9.7l1.4,0.3v1.6h-5.6
	v-1.6l1.4-0.3v-6.1l-0.1,0l-5.4,5.5v0.6l1.4,0.3v1.6h-5.6v-1.6l1.4-0.3v-9.7l-1.4-0.3v-1.6h1.4h2.7H172.3z"/>
<path class="st0" d="M190.2,33.3h-4.6v3.9h4.4l0.1-1.6h2.1v3.7h-10.7v-1.6l1.4-0.3v-9.7l-1.4-0.3v-1.6h1.4h9.2v3.7H190l-0.1-1.6
	h-4.3v3.4h4.6V33.3z"/>
<g>
	<rect x="0.5" y="0.4" class="st1" width="45" height="16.1"/>
	<rect x="0.5" y="21.5" class="st2" width="45" height="11"/>
	<rect x="0.5" y="37.5" class="st2" width="45" height="7"/>
</g>
</svg>
