<?xml version="1.0" encoding="utf-8"?>
<!-- Generator: Adobe Illustrator 21.0.1, SVG Export Plug-In . SVG Version: 6.00 Build 0)  -->
<svg version="1.1" id="Layer_1" xmlns="http://www.w3.org/2000/svg" xmlns:xlink="http://www.w3.org/1999/xlink" x="0px" y="0px"
	 viewBox="0 0 100 95" style="enable-background:new 0 0 100 95;" xml:space="preserve">
<style type="text/css">
	.st0{fill:#00945E;}
</style>
<g>
	<path class="st0" d="M67.8,40.9c-2.9-2.4-6.6-3.6-10.8-3.6c-1,0-1.9,0.1-2.9,0.2c-0.7-3.1-1.9-6-3.2-9c-2.7-6.1-6.6-11.4-11.3-15.2
		c-4.7-3.8-9.8-5.8-14.6-5.8c-2.3,0-4.4,0.4-6.5,1.3C13,11.2,9.2,16.4,7.8,23.6c-1.3,6.9-0.3,14.9,3,22.4c3.1,7,8,13.1,13.7,16.9
		c-4,10.6-2.5,20.7,4.1,26.1c3,2.4,6.8,3.7,11,3.7l0,0c8.7,0,18.5-5.3,25.5-14C70.2,72.4,73.4,65,74,58
		C74.6,50.7,72.4,44.6,67.8,40.9z M35.8,46.5c-0.8-1.1-1.6-2.1-2.6-3.2c0,0,0,0-0.1-0.1C22.5,33.2,21,27,21.5,23.6
		c0.1-0.8,0.3-1.4,0.6-2c-0.1,1.4,0.1,2.7,0.6,3.9c0.9,2.2,2.6,4,5.3,6.7c1.8,1.8,4,4,6.7,7.2c1.5,1.8,2.7,3.4,3.6,5
		C37.5,45,36.6,45.7,35.8,46.5z M13.7,44.7c-6.2-14.1-3.5-28.9,6-33c1.6-0.7,3.4-1.1,5.2-1.1c8.7,0,18.2,7.9,23.1,19.2
		c1.3,2.9,2.4,5.5,3,8.3c-3.5,0.8-6.9,2.4-10.1,4.5c-1-1.7-2.2-3.3-3.8-5.2c-2.8-3.2-5-5.5-6.8-7.3c-5.1-5.1-5.8-5.9-4.3-12.5
		c0.1-0.6-0.1-1.2-0.5-1.6c-0.5-0.4-1.1-0.5-1.6-0.2c-0.2,0.1-4.4,2.1-5.3,7.2c-1,6.1,3.2,13.6,12.5,22.5c1,1.1,1.8,2.1,2.6,3.2
		c-0.7,0.8-1.5,1.6-2.2,2.5c-2.2,2.7-4.1,5.7-5.6,8.8C20.8,56.5,16.5,51,13.7,44.7z M62.7,76.7c-6.4,7.9-15.3,12.8-23.1,12.8
		c-3.5,0-6.6-1-9-3c-5.8-4.7-6.8-14-2.6-23.8c1.6-3.6,3.3-6.5,5.5-9.1c1.1-1.3,2-2.3,2.8-3.2c0.1-0.1,0.2-0.2,0.3-0.3
		c0,0,0,0,0.1-0.1c0.1-0.1,0.3-0.3,0.5-0.4c1.5-1.4,2.9-2.6,4.2-3.6c3.8-2.6,8-4.5,11.8-5.2h0c1.3-0.3,2.7-0.4,3.9-0.4
		c3.5,0,6.5,1,8.9,2.9C73.8,49.8,72.4,64.8,62.7,76.7z"/>
	<path class="st0" d="M51.2,50.2c-3,2.6-5.7,6.6-7.9,11.8c-1,2.3-1.8,4.5-2.4,6.8C37.1,79.5,31,80.1,30.8,80.1
		c-0.7,0-1.3,0.5-1.5,1.1c-0.2,0.7,0.1,1.4,0.7,1.7c0.1,0.1,2.4,1.5,5.8,1.5c4.4,0,10.5-2.4,15.2-13.9l0.7-1.7
		c5.3-13.3,6.5-16.1,15.2-18.2c0.6-0.2,1.1-0.7,1.2-1.3c0.1-0.6-0.2-1.3-0.8-1.6c-0.1-0.1-2.5-1.4-6.1-1.4
		C57.6,46.3,54.2,47.6,51.2,50.2z M48.8,67.6l-0.7,1.7c-3.2,7.9-7.4,12-12.3,12c0,0,0,0,0,0c2.6-1.7,5.8-5.1,8.1-11.6
		c0,0,0-0.1,0-0.1c0.7-2.2,1.4-4.3,2.3-6.5c2-4.8,4.4-8.4,7-10.6c2.3-2,4.8-3,7.4-3.1C55,52.2,53.1,57,48.8,67.6z"/>
	<path class="st0" d="M76.8,19.4c-1.4-0.9-2.5-1.7-3.5-2.4c-4.9-3.3-5-3.3-4.7-7.8c0-0.6-0.3-1.2-0.8-1.5c-0.5-0.3-1.2-0.2-1.7,0.1
		c-0.1,0.1-3.5,2.7-3.2,6.9c0.3,4,3.8,7.9,10.5,11.6c4.9,3.1,5.1,5.2,4.9,5.7s-0.1,1.3,0.5,1.8c0.7,0.6,1.7,0.2,2,0
		c0.1-0.1,2.7-2,2.6-5.4C83.2,25.3,81,22.3,76.8,19.4z M74.9,23.7C74.9,23.6,74.9,23.6,74.9,23.7c-7.2-3.9-8.8-7.1-9-9.1
		c0,0,0-0.1,0-0.1c0.8,1.9,2.5,3.1,5.6,5.2c1,0.7,2.1,1.4,3.4,2.3c3.3,2.3,5,4.5,5.1,6.4C79.2,27,77.6,25.3,74.9,23.7z"/>
	<path class="st0" d="M84.8,11.8c-4.1-5.7-10.4-9.2-16.2-9.2c-2.8,0-5.5,0.8-7.6,2.4c-6.8,5-7.1,16.1-0.7,24.8
		c4.1,5.7,10.4,9.2,16.2,9.2h0c2.8,0,5.5-0.8,7.6-2.4c3.3-2.5,5.2-6.4,5.3-11.2C89.5,20.8,87.8,16,84.8,11.8z M82.3,34.1
		c-1.6,1.2-3.6,1.8-5.8,1.8h0c-4.9,0-10.2-3-13.7-7.9c-5.4-7.3-5.4-16.5,0-20.4c1.6-1.2,3.6-1.8,5.8-1.8c4.9,0,10.2,3,13.7,7.9
		c2.6,3.6,4.1,7.8,4,11.7C86.2,29.1,84.8,32.2,82.3,34.1z"/>
</g>
</svg>
