<svg xmlns="http://www.w3.org/2000/svg" width="112" height="129" viewBox="0 0 112 129">
  <metadata><?xpacket begin="﻿" id="W5M0MpCehiHzreSzNTczkc9d"?>
<x:xmpmeta xmlns:x="adobe:ns:meta/" x:xmptk="Adobe XMP Core 5.6-c138 79.159824, 2016/09/14-01:09:01        ">
   <rdf:RDF xmlns:rdf="http://www.w3.org/1999/02/22-rdf-syntax-ns#">
      <rdf:Description rdf:about=""/>
   </rdf:RDF>
</x:xmpmeta>
                                                                                                    
                                                                                                    
                                                                                                    
                                                                                                    
                                                                                                    
                                                                                                    
                                                                                                    
                                                                                                    
                                                                                                    
                                                                                                    
                                                                                                    
                                                                                                    
                                                                                                    
                                                                                                    
                                                                                                    
                                                                                                    
                                                                                                    
                                                                                                    
                                                                                                    
                                                                                                    
                           
<?xpacket end="w"?></metadata>
<defs>
    <style>
      .cls-1 {
        fill: #00945e;
        fill-rule: evenodd;
      }
    </style>
  </defs>
  <path id="eco" class="cls-1" d="M5019.89,12805.6s-23.51-10.5-26.93,16.6C4992.96,12822.2,5016.47,12832.2,5019.89,12805.6Zm-35.36,16.6c-3.41-27.1-26.93-16.6-26.93-16.6C4961.02,12832.2,4984.53,12822.2,4984.53,12822.2Zm-6.41,58.3a25.625,25.625,0,0,0,4.35,1,33.245,33.245,0,0,1,1.04-9.3A10.73,10.73,0,0,0,4978.12,12880.5Zm21.37-.2a10.89,10.89,0,0,0-5.45-8.2,34.388,34.388,0,0,1,1.06,9.2A41.219,41.219,0,0,0,4999.49,12880.3Zm-21.4,1.8a10.741,10.741,0,0,0,5.58,8.9,48.173,48.173,0,0,1-1.13-7.9A33.667,33.667,0,0,1,4978.09,12882.1Zm21.45-.2a41.619,41.619,0,0,1-4.5.9,46.214,46.214,0,0,1-1.16,8.2A10.614,10.614,0,0,0,4999.54,12881.9Zm-15.5,1.4a46.51,46.51,0,0,0,1.34,8.4,9.823,9.823,0,0,0,3.43.6,12.363,12.363,0,0,0,3.37-.5,48.613,48.613,0,0,0,1.35-8.7c-2.08.2-4.01,0.4-5.74,0.4C4986.42,12883.5,4985.17,12883.4,4984.04,12883.3Zm6.97-16.1v-56.3c4.72-4.5,14.34-16.5-2.15-29.9,0,0-19.68,13.4-2.24,29.7v57.1c-0.37,3-1.31,3.6-1.31,3.6a31.381,31.381,0,0,0-1.34,10.3,35.218,35.218,0,0,0,9.63-.2,30.672,30.672,0,0,0-1.35-10.1S4991.32,12871.1,4991.01,12867.2Zm-50.33,8.9v-17a3.84,3.84,0,1,0-7.68,0v25.8a25.118,25.118,0,0,0,24.7,25.1v-16.9A17.028,17.028,0,0,0,4940.68,12876.1Zm35.18,5.4a12.783,12.783,0,0,1,7.35-11.6v-20.5a3.845,3.845,0,1,0-7.69,0v17.4a23.393,23.393,0,0,0-2.33-2v-27.2a3.84,3.84,0,0,0-7.68,0v23.2a27.118,27.118,0,0,0-2.86-.7v-32.2a3.845,3.845,0,0,0-7.69,0v32a14.043,14.043,0,0,0-2.85.6v-28a3.845,3.845,0,0,0-7.69,0v40.4a20.656,20.656,0,0,1,16.79,19.9h0.01v16.9a1.633,1.633,0,0,1,.68-0.1c1.25-.2,2.48-0.5,3.7-0.8a24.344,24.344,0,0,0,6.78-3.1,27.252,27.252,0,0,0,5.6-5,21.331,21.331,0,0,0,3.63-6.3c0.2-.6.37-1.2,0.53-1.7A13.047,13.047,0,0,1,4975.86,12881.5Zm-2.1-3.6c-7.74-7.9-19.58-8-20.34-8v-3.5c1.41,0,13.04.2,21.65,7.9A14.814,14.814,0,0,0,4973.76,12877.9Zm67.39-22.7a3.842,3.842,0,0,0-3.84,3.9v17a17.041,17.041,0,0,0-17.02,17v16.9a25.12,25.12,0,0,0,24.71-25.1v-25.8A3.844,3.844,0,0,0,5041.15,12855.2Zm-7.57,17.7v-40.4a3.845,3.845,0,0,0-7.69,0v28a26.343,26.343,0,0,0-2.86-.6v-32a3.84,3.84,0,0,0-7.68,0v32.3a14,14,0,0,0-2.86.6v-23.2a3.84,3.84,0,0,0-7.68,0v27.2a24.7,24.7,0,0,0-2.34,2v-17.4a3.84,3.84,0,1,0-7.68,0v20.5a12.783,12.783,0,0,1,7.35,11.6,13.047,13.047,0,0,1-6.28,11.2c0.16,0.5.33,1.1,0.53,1.7a21.331,21.331,0,0,0,3.63,6.3,27.252,27.252,0,0,0,5.6,5,24.273,24.273,0,0,0,6.79,3.1c1.21,0.3,2.44.6,3.69,0.8a1.633,1.633,0,0,1,.68.1v-16.9h0.01A20.656,20.656,0,0,1,5033.58,12872.9Zm-29.35,5a14.814,14.814,0,0,0-1.31-3.6c8.61-7.7,20.25-7.9,21.65-7.9v3.5C5023.82,12869.9,5011.98,12870,5004.23,12877.9Z" transform="translate(-4933 -12781)"/>
</svg>
