<svg xmlns="http://www.w3.org/2000/svg" width="127" height="113" viewBox="0 0 127 113">
  <metadata><?xpacket begin="﻿" id="W5M0MpCehiHzreSzNTczkc9d"?>
<x:xmpmeta xmlns:x="adobe:ns:meta/" x:xmptk="Adobe XMP Core 5.6-c138 79.159824, 2016/09/14-01:09:01        ">
   <rdf:RDF xmlns:rdf="http://www.w3.org/1999/02/22-rdf-syntax-ns#">
      <rdf:Description rdf:about=""/>
   </rdf:RDF>
</x:xmpmeta>
                                                                                                    
                                                                                                    
                                                                                                    
                                                                                                    
                                                                                                    
                                                                                                    
                                                                                                    
                                                                                                    
                                                                                                    
                                                                                                    
                                                                                                    
                                                                                                    
                                                                                                    
                                                                                                    
                                                                                                    
                                                                                                    
                                                                                                    
                                                                                                    
                                                                                                    
                                                                                                    
                           
<?xpacket end="w"?></metadata>
<defs>
    <style>
      .cls-1 {
        fill: #00945e;
        fill-rule: evenodd;
      }
    </style>
  </defs>
  <path id="ice-cubes" class="cls-1" d="M4983.87,10684.3l-24.88-10.1a8.5,8.5,0,0,0-3.24-.6,9.876,9.876,0,0,0-5.48,1.6l-19.84,14.6a8.955,8.955,0,0,0-3.33,8.2l3.6,20.8a11.292,11.292,0,0,0,4.79,7l22.45,13.5a6.77,6.77,0,0,0,3.7,1,7.232,7.232,0,0,0,5.42-2.3l16.03-17.6a14.372,14.372,0,0,0,3.27-7.3l2.2-21A7.8,7.8,0,0,0,4983.87,10684.3Zm-0.35,7.3-2.21,21a9.557,9.557,0,0,1-1.98,4.4l-16.03,17.6a2.358,2.358,0,0,1-1.67.7,1.859,1.859,0,0,1-1.06-.3l-22.46-13.6a6.025,6.025,0,0,1-2.41-3.5l-3.6-20.7a3.8,3.8,0,0,1,1.33-3.3l19.84-14.6a4.682,4.682,0,0,1,2.48-.7,4.892,4.892,0,0,1,1.32.2l24.88,10.2A2.82,2.82,0,0,1,4983.52,10691.6Zm-19.19,21.6a3.877,3.877,0,0,1,.78-1.7l16.04-19c0.36-.4.31-0.4-0.12-0.1l-18.09,15.5a2.051,2.051,0,0,1-1.7.3l-25.27-10.8c-0.51-.2-0.54-0.2-0.07.1l23.3,14.2a2.293,2.293,0,0,1,.94,1.6l1.54,19.5c0.04,0.6.14,0.6,0.2,0Zm38.08-25.5,1.07,13.5,1.57-1.1,1.55-12.4a3.774,3.774,0,0,1,.78-1.8l16.04-18.9c0.36-.5.31-0.5-0.11-0.1l-18.1,15.4a1.751,1.751,0,0,1-1.7.3l-25.27-10.8c-0.51-.2-0.54-0.1-0.07.2l23.3,14.2A2.063,2.063,0,0,1,5002.41,10687.7Zm46.87,17.3-24.88-10.2a8.5,8.5,0,0,0-3.24-.6,9.2,9.2,0,0,0-5.48,1.7l-19.84,14.5a9.131,9.131,0,0,0-3.33,8.3l3.6,20.7a10.994,10.994,0,0,0,4.79,7l22.45,13.6a7.74,7.74,0,0,0,3.69,1,7.641,7.641,0,0,0,5.43-2.3l16.03-17.7a14.088,14.088,0,0,0,3.27-7.3l2.2-20.9A7.712,7.712,0,0,0,5049.28,10705Zm-0.35,7.3-2.21,20.9a9.028,9.028,0,0,1-1.98,4.4l-16.03,17.7a2.286,2.286,0,0,1-1.66.6,3.4,3.4,0,0,1-1.07-.2l-22.45-13.6a6.041,6.041,0,0,1-2.42-3.5l-3.6-20.8a3.889,3.889,0,0,1,1.34-3.3l19.83-14.5a3.918,3.918,0,0,1,2.48-.7,4.892,4.892,0,0,1,1.32.2l24.88,10.1A2.951,2.951,0,0,1,5048.93,10712.3Zm-19.19,21.6a3.774,3.774,0,0,1,.78-1.8l16.04-18.9c0.36-.4.31-0.5-0.12-0.1l-18.08,15.4a1.77,1.77,0,0,1-1.71.3l-25.27-10.8c-0.51-.2-0.54-0.1-0.06.2l23.29,14.2a2.321,2.321,0,0,1,.95,1.5l1.53,19.6c0.04,0.5.14,0.5,0.21,0Zm-39.9-26.4,2.83,1.7c0.25-.2.5-0.4,0.77-0.6l3.61-2.6-6.63-4.1Zm36.3-48.8-24.88-10.1a8.5,8.5,0,0,0-3.24-.6,9.2,9.2,0,0,0-5.48,1.7l-19.84,14.5a9.037,9.037,0,0,0-3.33,8.3l0.58,3.4,5.55,2.2-1.13-6.5a3.881,3.881,0,0,1,1.33-3.3l19.84-14.5a3.9,3.9,0,0,1,2.48-.7,2.728,2.728,0,0,1,1.32.2l24.88,10.1a2.928,2.928,0,0,1,1.57,2.6l-2.21,21a9.54,9.54,0,0,1-1.97,4.4l-0.17.2a11.184,11.184,0,0,1,4.49.9l0.85,0.3a13.791,13.791,0,0,0,1.85-5.3l2.2-20.9A7.929,7.929,0,0,0,5026.14,10658.7Z" transform="translate(-4927 -10648)"/>
</svg>
