<?xml version="1.0" encoding="utf-8"?>
<!-- Generator: Adobe Illustrator 21.0.1, SVG Export Plug-In . SVG Version: 6.00 Build 0)  -->
<svg version="1.1" id="Layer_1" xmlns="http://www.w3.org/2000/svg" xmlns:xlink="http://www.w3.org/1999/xlink" x="0px" y="0px"
	 viewBox="0 0 100 91.9" style="enable-background:new 0 0 100 91.9;" xml:space="preserve">
<style type="text/css">
	.st0{fill:#00945E;}
</style>
<path class="st0" d="M14.5,61.1c2,2.8,4.4,5,7.1,6.4c2.7,1,5,1.4,6.8,1.3c-5.8-6-8.8-13.2-8.8-21.5c0-4.9,1-9.4,3-13.5
	c0.3-0.5,0.6-0.8,1.1-1c0.5-0.2,1.1-0.1,1.6,0.1c0.5,0.2,0.8,0.6,1,1.1c0.2,0.5,0.2,1-0.1,1.5c-1.7,3.6-2.6,7.6-2.6,11.8
	c0,7.4,2.6,13.8,8,19.1l1.2,1.2c0.9-1.1,1.3-2.6,1.3-4.4s-0.9-5.1-2.6-9.7c-1.9-5.2-2.8-8.9-2.8-11.2c0-6.1,3.1-11.8,9.4-17.4
	c2.2-1.9,5-3.9,8.3-5.9c-2-0.4-4-0.5-5.8-0.5c-7.8,0-14.5,1.8-20.1,5.3c-7.3,4.7-10.9,12-10.9,21.7C9.5,51.2,11.2,56.5,14.5,61.1z
	 M5.5,45.4c0-11.2,4.3-19.6,12.8-25c6.2-4,13.6-5.9,22.3-5.9c3.2,0,7.1,0.6,11.9,1.7c0.9,0.2,1.4,0.8,1.5,1.7c0.1,0.9-0.3,1.6-1,2
	c-5.4,2.9-9.4,5.6-12.1,8c-5.4,4.7-8.1,9.5-8.1,14.4c0,1.9,0.9,5.1,2.5,9.8c1.9,5,2.9,8.7,2.9,11.1c0,2.8-0.7,5.1-2.2,6.8
	c2.2,1.5,4.4,2.5,6.7,3.2c0.5,0.2,0.9,0.5,1.2,1s0.3,1,0.1,1.6c-0.3,0.9-1,1.4-1.9,1.4L41.5,77C38.1,76,35,74.3,32,72
	c-3.3,1.3-7.3,1-12-0.8l-0.3-0.1c-3.3-1.8-6.1-4.4-8.5-7.7C7.4,58.1,5.5,52.1,5.5,45.4z M64.2,24.1c-2.1-1.4-4.3-2.5-6.6-3.1
	c-0.5-0.1-0.9-0.5-1.2-1c-0.2-0.5-0.3-1-0.2-1.5c0.2-0.5,0.5-0.9,1-1.2c0.5-0.2,1-0.3,1.5-0.1c3.4,1,6.5,2.7,9.4,4.9
	c3.3-1.3,7.3-1,12,0.8l0.3,0.1c3.2,1.8,6,4.4,8.5,7.8c3.8,5.2,5.6,11.3,5.6,18c0,11.2-4.3,19.5-12.8,25c-6.2,4-13.6,5.9-22.3,5.9
	c-3.1,0-7-0.6-11.8-1.7c-0.9-0.2-1.4-0.8-1.5-1.7c-0.1-0.9,0.3-1.6,1-2.1c5-2.7,9.1-5.3,12.1-7.9c5.4-4.7,8.1-9.5,8.1-14.4
	c0-2-0.8-5.3-2.5-9.8C62.9,37,62,33.3,62,30.9C62,28.2,62.7,26,64.2,24.1L64.2,24.1z M71.7,25.2c5.8,6,8.8,13.2,8.8,21.6
	c0,4.9-1,9.4-2.9,13.5c-0.2,0.5-0.6,0.8-1.2,1c-0.5,0.2-1.1,0.2-1.6-0.1s-0.8-0.6-1-1.2c-0.2-0.5-0.2-1,0.1-1.5
	c1.7-3.5,2.6-7.4,2.6-11.8c0-7.5-2.6-13.9-7.9-19.1c-0.3-0.3-0.7-0.7-1.2-1.1c-0.9,1.1-1.4,2.5-1.4,4.3c0,1.8,0.9,5,2.7,9.8
	c1.8,5.1,2.8,8.8,2.8,11.2c0,6.1-3.2,11.9-9.5,17.4c-2.2,1.9-4.9,3.8-8.2,5.8c2.3,0.4,4.2,0.6,5.8,0.6c7.8,0,14.5-1.8,20.1-5.3
	c7.3-4.7,10.9-11.9,10.9-21.7c0-5.9-1.6-11.2-4.8-15.7c-2.1-2.9-4.4-5-7.2-6.5C75.9,25.4,73.6,25,71.7,25.2z M25.6,32
	c-0.4-0.3-0.7-0.8-0.8-1.3c-0.1-0.5,0.1-1,0.4-1.5l0.9-1c0.4-0.4,0.9-0.5,1.5-0.5c0.5,0,1,0.2,1.4,0.5c0.4,0.4,0.5,0.9,0.5,1.5
	c0,0.5-0.2,1-0.5,1.4l-0.5,0.6c-0.4,0.5-1,0.8-1.6,0.8C26.3,32.5,25.9,32.3,25.6,32z M73.2,61.6c0.5,0,1,0.1,1.4,0.5
	c0.4,0.4,0.6,0.8,0.7,1.3c0,0.5-0.1,1-0.4,1.4l-0.6,0.7c-0.4,0.5-0.9,0.8-1.6,0.8c-0.4,0-0.8-0.1-1.2-0.4c-0.4-0.4-0.7-0.8-0.8-1.3
	s0.1-1,0.4-1.4l0.7-0.9C72.1,61.8,72.6,61.6,73.2,61.6z"/>
</svg>
