<svg style="position: absolute; width: 0; height: 0; overflow: hidden;" version="1.1" xmlns="http://www.w3.org/2000/svg" xmlns:xlink="http://www.w3.org/1999/xlink">
  <defs>
    <symbol id="icon-menu" viewBox="0 0 24 24">
      <title>menu</title>
      <path d="M3 6h18v2.016h-18v-2.016zM3 12.984v-1.969h18v1.969h-18zM3 18v-2.016h18v2.016h-18z"></path>
    </symbol>
    <symbol id="icon-search" viewBox="0 0 32 32">
      <title>search</title>
      <path d="M31.008 27.231l-7.58-6.447c-0.784-0.705-1.622-1.029-2.299-0.998 1.789-2.096 2.87-4.815 2.87-7.787 0-6.627-5.373-12-12-12s-12 5.373-12 12 5.373 12 12 12c2.972 0 5.691-1.081 7.787-2.87-0.031 0.677 0.293 1.515 0.998 2.299l6.447 7.58c1.104 1.226 2.907 1.33 4.007 0.23s0.997-2.903-0.23-4.007zM12 20c-4.418 0-8-3.582-8-8s3.582-8 8-8 8 3.582 8 8-3.582 8-8 8z"></path>
    </symbol>
    <symbol id="icon-linkedin" viewBox="0 0 32 32">
      <title>linkedin</title>
      <path d="M29 0h-26c-1.65 0-3 1.35-3 3v26c0 1.65 1.35 3 3 3h26c1.65 0 3-1.35 3-3v-26c0-1.65-1.35-3-3-3zM12 26h-4v-14h4v14zM10 10c-1.106 0-2-0.894-2-2s0.894-2 2-2c1.106 0 2 0.894 2 2s-0.894 2-2 2zM26 26h-4v-8c0-1.106-0.894-2-2-2s-2 0.894-2 2v8h-4v-14h4v2.481c0.825-1.131 2.087-2.481 3.5-2.481 2.488 0 4.5 2.238 4.5 5v9z"></path>
    </symbol>
    <symbol id="icon-facebook2" viewBox="0 0 32 32">
      <title>facebook2</title>
      <path d="M29 0h-26c-1.65 0-3 1.35-3 3v26c0 1.65 1.35 3 3 3h13v-14h-4v-4h4v-2c0-3.306 2.694-6 6-6h4v4h-4c-1.1 0-2 0.9-2 2v2h6l-1 4h-5v14h9c1.65 0 3-1.35 3-3v-26c0-1.65-1.35-3-3-3z"></path>
    </symbol>
    <symbol id="icon-pencil" viewBox="0 0 32 32">
      <title>pencil</title>
      <path d="M27 0c2.761 0 5 2.239 5 5 0 1.126-0.372 2.164-1 3l-2 2-7-7 2-2c0.836-0.628 1.874-1 3-1zM2 23l-2 9 9-2 18.5-18.5-7-7-18.5 18.5zM22.362 11.362l-14 14-1.724-1.724 14-14 1.724 1.724z"></path>
    </symbol>
    <symbol id="icon-phone" viewBox="0 0 24 24">
      <title>phone</title>
      <path d="M6.609 10.781c1.453 2.813 3.797 5.156 6.609 6.609l2.203-2.203c0.281-0.281 0.703-0.375 1.031-0.234 1.125 0.375 2.344 0.563 3.563 0.563 0.563 0 0.984 0.422 0.984 0.984v3.516c0 0.563-0.422 0.984-0.984 0.984-9.375 0-17.016-7.641-17.016-17.016 0-0.563 0.422-0.984 0.984-0.984h3.516c0.563 0 0.984 0.422 0.984 0.984 0 1.266 0.188 2.438 0.563 3.563 0.094 0.328 0.047 0.75-0.234 1.031z"></path>
    </symbol>






    <symbol id="icon-link" viewBox="0 0 24 24">
      <title>link</title>
      <path d="M17.016 6.984c2.766 0 4.969 2.25 4.969 5.016s-2.203 5.016-4.969 5.016h-4.031v-1.922h4.031c1.688 0 3.094-1.406 3.094-3.094s-1.406-3.094-3.094-3.094h-4.031v-1.922h4.031zM8.016 12.984v-1.969h7.969v1.969h-7.969zM3.891 12c0 1.688 1.406 3.094 3.094 3.094h4.031v1.922h-4.031c-2.766 0-4.969-2.25-4.969-5.016s2.203-5.016 4.969-5.016h4.031v1.922h-4.031c-1.688 0-3.094 1.406-3.094 3.094z"></path>
    </symbol>
    <symbol id="icon-schedule" viewBox="0 0 24 24">
      <title>schedule</title>
      <path d="M12.516 6.984v5.25l4.5 2.672-0.75 1.266-5.25-3.188v-6h1.5zM12 20.016c4.406 0 8.016-3.609 8.016-8.016s-3.609-8.016-8.016-8.016-8.016 3.609-8.016 8.016 3.609 8.016 8.016 8.016zM12 2.016c5.531 0 9.984 4.453 9.984 9.984s-4.453 9.984-9.984 9.984-9.984-4.453-9.984-9.984 4.453-9.984 9.984-9.984z"></path>
    </symbol>
    <symbol id="icon-build" viewBox="0 0 24 24">
      <title>build</title>
      <path d="M22.688 18.984c0.422 0.281 0.422 0.984-0.094 1.406l-2.297 2.297c-0.422 0.422-0.984 0.422-1.406 0l-9.094-9.094c-2.297 0.891-4.969 0.422-6.891-1.5-2.016-2.016-2.531-5.016-1.313-7.406l4.406 4.313 3-3-4.313-4.313c2.391-1.078 5.391-0.703 7.406 1.313 1.922 1.922 2.391 4.594 1.5 6.891z"></path>
    </symbol>
    <symbol id="icon-check" viewBox="0 0 24 24">
      <title>check</title>
      <path d="M9 16.172l10.594-10.594 1.406 1.406-12 12-5.578-5.578 1.406-1.406z"></path>
    </symbol>
    <symbol id="icon-close" viewBox="0 0 24 24">
      <title>close</title>
      <path d="M18.984 6.422l-5.578 5.578 5.578 5.578-1.406 1.406-5.578-5.578-5.578 5.578-1.406-1.406 5.578-5.578-5.578-5.578 1.406-1.406 5.578 5.578 5.578-5.578z"></path>
    </symbol>
    <symbol id="icon-star" viewBox="0 0 24 24">
      <title>star</title>
      <path d="M12 17.25l-6.188 3.75 1.641-7.031-5.438-4.734 7.172-0.609 2.813-6.609 2.813 6.609 7.172 0.609-5.438 4.734 1.641 7.031z"></path>
    </symbol>
    <symbol id="icon-home" viewBox="0 0 24 24">
      <title>home</title>
      <path d="M9.984 20.016h-4.969v-8.016h-3l9.984-9 9.984 9h-3v8.016h-4.969v-6h-4.031v6z"></path>
    </symbol>
    <symbol id="icon-important_devices" viewBox="0 0 24 24">
      <title>important_devices</title>
      <path d="M11.953 9h3.047l-2.484 1.781 0.938 2.906-2.438-1.828-2.484 1.828 0.938-2.906-2.484-1.781h3.047l0.984-3zM20.016 2.016c1.078 0 1.969 0.844 1.969 1.969v5.016h-1.969v-5.016h-18v12h12.984v2.016h-2.016v2.016h2.016v1.969h-8.016v-1.969h2.016v-2.016h-6.984c-1.125 0-2.016-0.938-2.016-2.016v-12c0-1.125 0.891-1.969 2.016-1.969h18zM23.016 20.016v-7.031h-5.016v7.031h5.016zM23.016 11.016c0.563 0 0.984 0.422 0.984 0.984v9c0 0.563-0.422 0.984-0.984 0.984h-5.016c-0.563 0-0.984-0.422-0.984-0.984v-9c0-0.563 0.422-0.984 0.984-0.984h5.016z"></path>
    </symbol>
    <symbol id="icon-keyboard_arrow_down" viewBox="0 0 24 24">
      <title>keyboard_arrow_down</title>
      <path d="M7.406 7.828l4.594 4.594 4.594-4.594 1.406 1.406-6 6-6-6z"></path>
    </symbol>
    <symbol id="icon-keyboard_arrow_left" viewBox="0 0 24 24">
      <title>keyboard_arrow_left</title>
      <path d="M15.422 16.078l-1.406 1.406-6-6 6-6 1.406 1.406-4.594 4.594z"></path>
    </symbol>
    <symbol id="icon-keyboard_arrow_right" viewBox="0 0 24 24">
      <title>keyboard_arrow_right</title>
      <path d="M8.578 16.359l4.594-4.594-4.594-4.594 1.406-1.406 6 6-6 6z"></path>
    </symbol>
    <symbol id="icon-mail_outline" viewBox="0 0 24 24">
      <title>mail_outline</title>
      <path d="M12 11.016l8.016-5.016h-16.031zM20.016 18v-9.984l-8.016 4.969-8.016-4.969v9.984h16.031zM20.016 3.984c1.078 0 1.969 0.938 1.969 2.016v12c0 1.078-0.891 2.016-1.969 2.016h-16.031c-1.078 0-1.969-0.938-1.969-2.016v-12c0-1.078 0.891-2.016 1.969-2.016h16.031z"></path>
    </symbol>
    <symbol id="icon-play_arrow" viewBox="0 0 24 24">
      <title>play_arrow</title>
      <path d="M8.016 5.016l10.969 6.984-10.969 6.984v-13.969z"></path>
    </symbol>
    <symbol id="icon-send" viewBox="0 0 24 24">
      <title>send</title>
      <path d="M2.016 21v-6.984l15-2.016-15-2.016v-6.984l21 9z"></path>
    </symbol>
    <symbol id="icon-supervisor_account" viewBox="0 0 24 24">
      <title>supervisor_account</title>
      <path d="M9 12.984c0.656 0 1.5 0.094 2.391 0.281-2.063 1.125-2.391 2.625-2.391 3.469v2.25h-6.984v-2.484c0-2.344 4.641-3.516 6.984-3.516zM16.5 14.016c1.828 0 5.484 0.891 5.484 2.719v2.25h-10.969v-2.25c0-1.828 3.656-2.719 5.484-2.719zM9 11.016c-1.641 0-3-1.359-3-3s1.359-3 3-3 3 1.359 3 3-1.359 3-3 3zM16.5 12c-1.359 0-2.484-1.125-2.484-2.484s1.125-2.531 2.484-2.531 2.484 1.172 2.484 2.531-1.125 2.484-2.484 2.484z"></path>
    </symbol>
    <symbol id="icon-thumb_up" viewBox="0 0 24 24">
      <title>thumb_up</title>
      <path d="M23.016 9.984l-0.047 0.094h0.047v1.922c0 0.281-0.047 0.516-0.141 0.75l-3.047 7.031c-0.281 0.703-0.984 1.219-1.828 1.219h-9c-1.078 0-2.016-0.938-2.016-2.016v-9.984c0-0.563 0.234-1.031 0.609-1.406l6.563-6.609 1.078 1.078c0.281 0.281 0.422 0.609 0.422 1.031v0.328l-0.984 4.594h6.328c1.078 0 2.016 0.891 2.016 1.969zM0.984 21v-12h4.031v12h-4.031z"></path>
    </symbol>
    <symbol id="icon-timer" viewBox="0 0 24 24">
      <title>timer</title>
      <path d="M12 20.016c3.891 0 6.984-3.141 6.984-7.031s-3.094-6.984-6.984-6.984-6.984 3.094-6.984 6.984 3.094 7.031 6.984 7.031zM19.031 7.406c1.219 1.547 1.969 3.469 1.969 5.578 0 4.969-4.031 9-9 9s-9-4.031-9-9 4.031-9 9-9c2.109 0 4.078 0.797 5.625 2.016l1.406-1.453c0.516 0.422 0.984 0.891 1.406 1.406zM11.016 14.016v-6h1.969v6h-1.969zM15 0.984v2.016h-6v-2.016h6z"></path>
    </symbol>
    <symbol id="icon-wallpaper" viewBox="0 0 24 24">
      <title>wallpaper</title>
      <path d="M3.984 12.984v7.031h7.031v1.969h-7.031c-1.078 0-1.969-0.891-1.969-1.969v-7.031h1.969zM20.016 20.016v-7.031h1.969v7.031c0 1.078-0.891 1.969-1.969 1.969h-7.031v-1.969h7.031zM20.016 2.016c1.078 0 1.969 0.891 1.969 1.969v7.031h-1.969v-7.031h-7.031v-1.969h7.031zM17.016 8.484c0 0.844-0.656 1.5-1.5 1.5s-1.5-0.656-1.5-1.5 0.656-1.5 1.5-1.5 1.5 0.656 1.5 1.5zM9.984 12.984l3 3.703 2.016-2.672 3 3.984h-12zM3.984 3.984v7.031h-1.969v-7.031c0-1.078 0.891-1.969 1.969-1.969h7.031v1.969h-7.031z"></path>
    </symbol>
    <symbol id="icon-github" viewBox="0 0 32 32">
      <title>github</title>
      <path d="M16 0.395c-8.836 0-16 7.163-16 16 0 7.069 4.585 13.067 10.942 15.182 0.8 0.148 1.094-0.347 1.094-0.77 0-0.381-0.015-1.642-0.022-2.979-4.452 0.968-5.391-1.888-5.391-1.888-0.728-1.849-1.776-2.341-1.776-2.341-1.452-0.993 0.11-0.973 0.11-0.973 1.606 0.113 2.452 1.649 2.452 1.649 1.427 2.446 3.743 1.739 4.656 1.33 0.143-1.034 0.558-1.74 1.016-2.14-3.554-0.404-7.29-1.777-7.29-7.907 0-1.747 0.625-3.174 1.649-4.295-0.166-0.403-0.714-2.030 0.155-4.234 0 0 1.344-0.43 4.401 1.64 1.276-0.355 2.645-0.532 4.005-0.539 1.359 0.006 2.729 0.184 4.008 0.539 3.054-2.070 4.395-1.64 4.395-1.64 0.871 2.204 0.323 3.831 0.157 4.234 1.026 1.12 1.647 2.548 1.647 4.295 0 6.145-3.743 7.498-7.306 7.895 0.574 0.497 1.085 1.47 1.085 2.963 0 2.141-0.019 3.864-0.019 4.391 0 0.426 0.288 0.925 1.099 0.768 6.354-2.118 10.933-8.113 10.933-15.18 0-8.837-7.164-16-16-16z"></path>
    </symbol>
    <symbol id="icon-rocket" viewBox="0 0 32 32">
      <title>rocket</title>
      <path d="M22 2l-10 10h-6l-6 8c0 0 6.357-1.77 10.065-0.94l-10.065 12.94 13.184-10.255c1.839 4.208-1.184 10.255-1.184 10.255l8-6v-6l10-10 2-10-10 2z"></path>
    </symbol>
  </defs>
</svg>
