<svg xmlns="http://www.w3.org/2000/svg" width="120" height="119" viewBox="0 0 120 119">
  <metadata><?xpacket begin="﻿" id="W5M0MpCehiHzreSzNTczkc9d"?>
<x:xmpmeta xmlns:x="adobe:ns:meta/" x:xmptk="Adobe XMP Core 5.6-c138 79.159824, 2016/09/14-01:09:01        ">
   <rdf:RDF xmlns:rdf="http://www.w3.org/1999/02/22-rdf-syntax-ns#">
      <rdf:Description rdf:about=""/>
   </rdf:RDF>
</x:xmpmeta>
                                                                                                    
                                                                                                    
                                                                                                    
                                                                                                    
                                                                                                    
                                                                                                    
                                                                                                    
                                                                                                    
                                                                                                    
                                                                                                    
                                                                                                    
                                                                                                    
                                                                                                    
                                                                                                    
                                                                                                    
                                                                                                    
                                                                                                    
                                                                                                    
                                                                                                    
                                                                                                    
                           
<?xpacket end="w"?></metadata>
<defs>
    <style>
      .cls-1 {
        fill: #00945e;
        fill-rule: evenodd;
      }
    </style>
  </defs>
  <path class="cls-1" d="M474.5,2626.23h32.873a3.652,3.652,0,0,0,3.636-3.67v-7.89a3.657,3.657,0,0,0-3.636-3.67H474.5a3.659,3.659,0,0,0-3.637,3.67v7.89A3.651,3.651,0,0,0,474.5,2626.23Zm45.37,14.43c0-6.7-4.919-12.15-10.967-12.15H472.966c-6.049,0-10.97,5.45-10.97,12.15,0,0.06,0,.12,0,0.18h0v78.51h0c0.153,5.65,4.225,10.18,9.231,10.18h39.415c5.007,0,9.08-4.53,9.232-10.18h0.007v-78.5h-0.012v-0.19ZM488.2,2701.69l6.485-17.33H477.166l11.719-21.73h8.62l-7.738,14.35h15.8Zm26.573-60.84H467.1c0-.07,0-0.13,0-0.19,0-3.86,2.628-7,5.869-7H508.9c3.237,0,5.872,3.14,5.872,7C514.775,2640.72,514.775,2640.78,514.77,2640.85Zm20.593-14.23h32.864a3.658,3.658,0,0,0,3.638-3.68v-7.88a3.65,3.65,0,0,0-3.638-3.67H535.363a3.656,3.656,0,0,0-3.645,3.67v7.88A3.664,3.664,0,0,0,535.363,2626.62Zm34.18,1.89h-35.5a12.532,12.532,0,0,0-12.451,12.58v76.34A12.525,12.525,0,0,0,534.042,2730h35.5A12.532,12.532,0,0,0,582,2717.43v-76.34A12.535,12.535,0,0,0,569.543,2628.51Zm7.106,88.92a7.143,7.143,0,0,1-7.106,7.17h-35.5a7.146,7.146,0,0,1-7.107-7.17v-76.34a7.149,7.149,0,0,1,7.107-7.18h35.5a7.152,7.152,0,0,1,7.106,7.18v76.34Zm-13.484-57.95a11.356,11.356,0,1,1-11.248,11.35A11.3,11.3,0,0,1,563.165,2659.48Zm-20.323,24.26a7.355,7.355,0,1,1-7.287,7.35A7.316,7.316,0,0,1,542.842,2683.74Zm17.022,17.96a4.8,4.8,0,1,1-4.757,4.8A4.779,4.779,0,0,1,559.864,2701.7Z" transform="translate(-462 -2611)"/>
</svg>
