<?xml version="1.0" encoding="utf-8"?>
<!-- Generator: Adobe Illustrator 21.0.1, SVG Export Plug-In . SVG Version: 6.00 Build 0)  -->
<svg version="1.1" id="Layer_1" xmlns="http://www.w3.org/2000/svg" xmlns:xlink="http://www.w3.org/1999/xlink" x="0px" y="0px"
	 viewBox="0 0 247 42.6" style="enable-background:new 0 0 247 42.6;" xml:space="preserve">
<style type="text/css">
	.st0{fill:#FFFFFF;}
</style>
<path class="st0" d="M21.1,0.6C9.4,0.6,0,10,0,21.6c0,11.6,9.4,21,21,21c11.6,0,21-9.4,21-21C42.1,10,32.7,0.6,21.1,0.6 M21.1,39.6
	c-9.9,0-18-8-18-18c0-9.9,8.1-18,18-18c9.9,0,18,8,18,18C39,31.5,31,39.6,21.1,39.6"/>
<path class="st0" d="M50.6,11.6h0.3l8.9,9.8l8.8-9.8h0.3v18.3h-3.6v-6.8c0-1.2,0.1-3.2,0.1-3.2s-1.1,1.6-1.9,2.6l-3.6,4h-0.3l-3.6-4
	c-0.9-1-1.9-2.6-1.9-2.6s0.1,1.9,0.1,3.2v6.8h-3.6V11.6z"/>
<path class="st0" d="M79.3,11.6h0.3l8.3,18.3H84l-0.9-2.1h-7.3L75,29.9h-3.6L79.3,11.6z M81.8,24.7l-1.3-3.1
	c-0.5-1.3-1.1-3.2-1.1-3.2s-0.5,2-1.1,3.2l-1.3,3.1H81.8z"/>
<path class="st0" d="M103.7,29.9h-4.3l-3-4.6c-0.3,0.1-0.7,0.1-1.1,0.1h-1.3v4.5h-3.7V11.8h5c5.1,0,8.1,2.4,8.1,6.8
	c0,2.8-1.3,4.6-3.5,5.6L103.7,29.9z M95.3,22.2c3,0,4.4-1,4.4-3.5c0-2.6-1.4-3.6-4.4-3.6h-1.2v7.1H95.3z"/>
<path class="st0" d="M111.8,18.3l4.8-6.5h4.2l-6.1,8.2l6.8,9.9H117l-4.8-7.1l-1.8,2.1v5h-3.7V11.8h3.7v6.3c0,0.9-0.1,2.1-0.2,3
	C110.6,20.1,111.2,19,111.8,18.3"/>
<path class="st0" d="M128,11.8h4l3.1,7c0.7,1.5,1.4,3.1,1.4,3.1s0.7-1.5,1.4-3.1l3-7h3.6l-7.9,18.3h-0.4L128,11.8z"/>
<path class="st0" d="M147,11.8h12v3.3h-8.3v5.7h7.3V24h-7.3v2.6h8.6v3.3H147V11.8z"/>
<path class="st0" d="M168.2,21.5c-0.9-0.9-2.2-2.5-2.2-2.5s0.3,2,0.3,3.3v7.6h-3.5V11.6h0.4l9.1,8.6c0.9,0.8,2.1,2.5,2.1,2.5
	s-0.2-2-0.2-3.3v-7.6h3.5v18.3h-0.4L168.2,21.5z"/>
<path class="st0" d="M181.5,11.8h5.6c5.6,0,9.5,3.7,9.5,9c0,5.4-3.9,9.1-9.5,9.1h-5.6V11.8z M186.9,26.6c4,0,5.9-2.4,5.9-5.8
	c0-3.4-1.8-5.8-5.9-5.8h-1.7v11.6H186.9z"/>
<path class="st0" d="M204.5,20.9c0-5.3,4.1-9.3,9.3-9.3c3.3,0,5.6,1.2,7.2,3.7l-2.9,2c-0.9-1.4-2.3-2.4-4.4-2.4
	c-3.3,0-5.5,2.5-5.5,5.9c0,3.4,2.2,6,5.5,6c2.3,0,3.6-1.1,4.7-2.7l2.9,2c-1.6,2.4-4.1,4-7.6,4C208.6,30.1,204.5,26.2,204.5,20.9"/>
<path class="st0" d="M223.3,20.9c0-5.3,4.2-9.3,9.4-9.3c5.2,0,9.4,3.9,9.4,9.3c0,5.4-4.2,9.3-9.4,9.3
	C227.4,30.1,223.3,26.2,223.3,20.9 M238.2,20.9c0-3.4-2.2-6-5.5-6c-3.3,0-5.5,2.6-5.5,6c0,3.4,2.2,6,5.5,6
	C236,26.8,238.2,24.2,238.2,20.9"/>
<path class="st0" d="M242.8,27.9c0-1.3,1-2.1,2.2-2.1c1.1,0,2.1,0.9,2.1,2.1c0,1.3-1,2.2-2.1,2.2C243.7,30.1,242.8,29.2,242.8,27.9"
	/>
<path class="st0" d="M14.4,8.3c0-0.1,0.1-0.1,0.2,0l6.6,6.3l6.5-6.3c0.1-0.1,0.1-0.1,0.2,0L29,21.1h-3.9l-0.3-5.4l-3.7,3.1
	c-0.1,0.1-0.1,0.1-0.2,0l-3.8-3.1l-0.3,5.4h-3.9L14.4,8.3z"/>
<path class="st0" d="M21.2,36.7c-0.1,0.1-0.2,0.1-0.2,0l-8.1-12.8H17l4.1,7l4.1-7h4L21.2,36.7z"/>
</svg>
