<?xml version="1.0" encoding="utf-8"?>
<!-- Generator: Adobe Illustrator 21.0.1, SVG Export Plug-In . SVG Version: 6.00 Build 0)  -->
<svg version="1.1" id="Layer_1" xmlns="http://www.w3.org/2000/svg" xmlns:xlink="http://www.w3.org/1999/xlink" x="0px" y="0px"
	 viewBox="0 0 87 89" style="enable-background:new 0 0 87 89;" xml:space="preserve">
<style type="text/css">
	.st0{fill:none;enable-background:new    ;}
	.st1{fill:#FFFFFF;}
</style>
<path class="st0" d="z"/>
<path class="st1" d="M51.7,15.7c0,6.2,5.1,11.3,11.3,11.3s11.3-5.1,11.3-11.3S69.2,4.4,62.9,4.4S51.7,9.4,51.7,15.7z M69.7,15.7
	c0,3.7-3,6.8-6.8,6.8c-3.7,0-6.8-3-6.8-6.8s3-6.8,6.8-6.8C66.7,8.9,69.7,11.9,69.7,15.7z"/>
<path class="st1" d="M62.7,29.2c-11.5,0-20.6,5.8-20.6,13.3v3.7c0,1.2,1,2.3,2.3,2.3H81c1.2,0,2.3-1,2.3-2.3v-3.7
	C83.3,35,74.2,29.2,62.7,29.2z M78.7,43.9H46.6v-1.4c0-4.7,7.4-8.7,16.1-8.7s16.1,4,16.1,8.7V43.9z"/>
<path class="st1" d="M43.6,82.6c3.4,2,7.2,3,11.1,3c5.9,0,11.4-2.3,15.6-6.5c4-4,6.2-9.2,6.2-14.9v-1.3c0-0.9-0.6-1.8-1.5-2.1
	L57,54.2c-0.8-0.3-1.8-0.1-2.4,0.5l-5.4,5.4C41.5,54.8,35,48.3,29.7,40.8l5.4-5.4c0.6-0.6,0.8-1.6,0.5-2.4l-6.8-18.1
	c-0.3-0.9-1.2-1.5-2.1-1.5h-1.3c-5.6,0-10.9,2.2-14.9,6.2c-4.2,4.2-6.5,9.7-6.5,15.6c0,3.9,1,7.7,3,11.1
	C16,61.3,28.6,73.9,43.6,82.6z M8.8,35.1c0-4.7,1.8-9.1,5.1-12.4c3-3,7.1-4.8,11.4-4.8L31,33.1l-5.7,5.7c-0.8,0.8-0.9,2-0.3,2.8
	c6.2,9.2,14,17,23.2,23.2c0.9,0.6,2.1,0.5,2.8-0.3l5.7-5.7L72,64.6c-0.1,4.3-1.8,8.3-4.8,11.4c-3.3,3.3-7.7,5.1-12.4,5.1
	c-3.1,0-6.2-0.8-8.8-2.4C31.5,70.3,19.5,58.3,11.2,44C9.6,41.3,8.8,38.2,8.8,35.1z"/>
</svg>
