<svg xmlns="http://www.w3.org/2000/svg" width="105" height="83" viewBox="0 0 105 83">
  <metadata><?xpacket begin="﻿" id="W5M0MpCehiHzreSzNTczkc9d"?>
<x:xmpmeta xmlns:x="adobe:ns:meta/" x:xmptk="Adobe XMP Core 5.6-c138 79.159824, 2016/09/14-01:09:01        ">
   <rdf:RDF xmlns:rdf="http://www.w3.org/1999/02/22-rdf-syntax-ns#">
      <rdf:Description rdf:about=""/>
   </rdf:RDF>
</x:xmpmeta>
                                                                                                    
                                                                                                    
                                                                                                    
                                                                                                    
                                                                                                    
                                                                                                    
                                                                                                    
                                                                                                    
                                                                                                    
                                                                                                    
                                                                                                    
                                                                                                    
                                                                                                    
                                                                                                    
                                                                                                    
                                                                                                    
                                                                                                    
                                                                                                    
                                                                                                    
                                                                                                    
                           
<?xpacket end="w"?></metadata>
<defs>
    <style>
      .cls-1 {
        fill: #fff;
        fill-rule: evenodd;
      }
    </style>
  </defs>
  <path id="call-2" class="cls-1" d="M9577.07,1899.71a19.386,19.386,0,1,0,19.53,19.39A19.493,19.493,0,0,0,9577.07,1899.71Zm18.04,45.69h-36.07a17,17,0,0,0-17.04,16.92V1978h70.03v-15.81A16.568,16.568,0,0,0,9595.11,1945.4Zm32.61-50.4a19.141,19.141,0,1,0,19.28,19.14A19.146,19.146,0,0,0,9627.72,1895Zm9.7,14.45a20.542,20.542,0,0,1-11.69,15.18c-3.11,1.49-6.97-3.21-6.97-3.21l4.48-4.2s2.36,2.6,3.36,2.23c0,0,3.23-1.98,5.72-7.16,0.5-.99-2.98-2.84-2.98-2.84l3.1-5.31C9632.82,1904.01,9637.79,1906.48,9637.42,1909.45Z" transform="translate(-9542 -1895)"/>
</svg>
