<svg xmlns="http://www.w3.org/2000/svg" width="139" height="139" viewBox="0 0 139 139">
  <metadata><?xpacket begin="﻿" id="W5M0MpCehiHzreSzNTczkc9d"?>
<x:xmpmeta xmlns:x="adobe:ns:meta/" x:xmptk="Adobe XMP Core 5.6-c138 79.159824, 2016/09/14-01:09:01        ">
   <rdf:RDF xmlns:rdf="http://www.w3.org/1999/02/22-rdf-syntax-ns#">
      <rdf:Description rdf:about=""/>
   </rdf:RDF>
</x:xmpmeta>
                                                                                                    
                                                                                                    
                                                                                                    
                                                                                                    
                                                                                                    
                                                                                                    
                                                                                                    
                                                                                                    
                                                                                                    
                                                                                                    
                                                                                                    
                                                                                                    
                                                                                                    
                                                                                                    
                                                                                                    
                                                                                                    
                                                                                                    
                                                                                                    
                                                                                                    
                                                                                                    
                           
<?xpacket end="w"?></metadata>
<defs>
    <style>
      .cls-1 {
        fill: #00945e;
        fill-rule: evenodd;
      }
    </style>
  </defs>
  <path id="shceme-green" class="cls-1" d="M9611.57,5890.26a2.855,2.855,0,1,0,2.86,2.86A2.87,2.87,0,0,0,9611.57,5890.26Zm18.34,0.23a10.494,10.494,0,0,0-9.23,15.48l-15.97,12.75a21.421,21.421,0,1,0-.01,27.79l15.97,12.76a10.644,10.644,0,1,0,.79-1.23l-15.86-12.66a21.364,21.364,0,0,0,4.22-12.03h21.22a10.505,10.505,0,1,0,0-1.45h-21.22a21.26,21.26,0,0,0-4.21-12.04l15.86-12.67a10.488,10.488,0,1,0,8.44-16.71v0.01Zm-59.05,1.11a0.711,0.711,0,0,0-.71.73h0v7.33a0.726,0.726,0,0,0,.71.74,0.741,0.741,0,0,0,.74-0.72v-7.35a0.726,0.726,0,0,0-.72-0.73h-0.02Zm2.89,0a0.724,0.724,0,0,0-.71.73h0v2.53a0.726,0.726,0,0,0,.72.73,0.711,0.711,0,0,0,.73-0.71v-2.55a0.711,0.711,0,0,0-.71-0.73h-0.03Zm37.82,0.11a1.405,1.405,0,1,1-1.4,1.41A1.4,1.4,0,0,1,9611.57,5891.71Zm18.34,0.22a9.043,9.043,0,0,1,5.87,15.92v-4.43a3.022,3.022,0,0,0-3.02-3.01h-0.65a0.725,0.725,0,0,0-.69.48l-1.51,4.4-1.52-4.4a0.712,0.712,0,0,0-.68-0.48h-0.65a3.009,3.009,0,0,0-3.02,3.01v4.43A9.043,9.043,0,0,1,9629.91,5891.93Zm0,0.75a4.025,4.025,0,1,0,4.03,4.02A4.035,4.035,0,0,0,9629.91,5892.68Zm18.26,0.72a0.711,0.711,0,0,0-.71.73h0v7.33a0.711,0.711,0,0,0,.71.73,0.719,0.719,0,0,0,.74-0.71v-7.35a0.717,0.717,0,0,0-.71-0.73h-0.03Zm-18.26.72a2.58,2.58,0,1,1-2.58,2.58A2.573,2.573,0,0,1,9629.91,5894.12Zm-56.16,2.17a0.739,0.739,0,0,0-.71.74h0v7.33a0.732,0.732,0,0,0,.72.73,0.711,0.711,0,0,0,.73-0.71v-7.35a0.726,0.726,0,0,0-.71-0.74h-0.03Zm-2.89,4.81a0.711,0.711,0,0,0-.71.73v2.53a0.717,0.717,0,0,0,.71.73,0.726,0.726,0,0,0,.74-0.71v-2.55a0.726,0.726,0,0,0-.72-0.73C9570.87,5901.09,9570.87,5901.09,9570.86,5901.1Zm12.73,0.04a0.726,0.726,0,0,0,.08,1.45h4.59a0.711,0.711,0,0,0,.73-0.71,0.726,0.726,0,0,0-.71-0.74h-4.69Zm6.95,0a0.726,0.726,0,0,0,.07,1.45h13.1a0.725,0.725,0,0,0,.03-1.45h-13.2Zm36.51,0.71h0.14l2.03,5.91a0.722,0.722,0,0,0,.92.45,0.734,0.734,0,0,0,.46-0.45l2.03-5.91h0.13a1.554,1.554,0,0,1,1.57,1.57v5.44a9.02,9.02,0,0,1-8.85,0v-5.44a1.554,1.554,0,0,1,1.57-1.57h0Zm21.12,1.04a0.732,0.732,0,0,0-.71.74v2.52a0.719,0.719,0,0,0,.71.74,0.732,0.732,0,0,0,.74-0.71v-2.55a0.741,0.741,0,0,0-.72-0.74h-0.02Zm-58.84,1.15a0.726,0.726,0,1,0,.07,1.45h8.91a0.741,0.741,0,0,0,.74-0.72,0.732,0.732,0,0,0-.72-0.73h-9Zm11.23,0a0.726,0.726,0,0,0,.07,1.45h3.71a0.741,0.741,0,0,0,.74-0.72,0.732,0.732,0,0,0-.72-0.73h-3.8Zm-12.13,8.6a19.954,19.954,0,0,1,11.64,36.18v-11.03a5.591,5.591,0,0,0-5.59-5.58h-1.39a0.712,0.712,0,0,0-.68.48l-1.05,3.06-0.56-1.76a3.211,3.211,0,0,0,.91-0.89,4.172,4.172,0,0,0,.78-2.29,7.725,7.725,0,1,0-8.11,0,4.271,4.271,0,0,0,.78,2.37,3.125,3.125,0,0,0,.9.84l-0.55,1.74-1.05-3.07a0.725,0.725,0,0,0-.69-0.48h-1.38a5.572,5.572,0,0,0-5.59,5.58v11.03a19.954,19.954,0,0,1,11.63-36.18h0Zm57.42,1.47a2.855,2.855,0,1,0,2.85,2.85A2.855,2.855,0,0,0,9645.85,5914.11Zm0,1.44a1.41,1.41,0,1,1-1.41,1.41A1.4,1.4,0,0,1,9645.85,5915.55Zm-28.48.26a0.717,0.717,0,0,0-.72.72,0.726,0.726,0,0,0,.22.52l2.62,2.62a0.725,0.725,0,0,0,1.02.03,0.737,0.737,0,0,0,.03-1.03c-0.01-.01-0.02-0.01-0.03-0.02l-2.62-2.63a0.734,0.734,0,0,0-.52-0.21h0Zm8.76,0a0.712,0.712,0,0,0-.5.21l-2.62,2.63a0.725,0.725,0,0,0-.03,1.02,0.737,0.737,0,0,0,1.03.03,0.053,0.053,0,0,1,.02-0.03l2.63-2.62a0.736,0.736,0,0,0,.01-1.03,0.723,0.723,0,0,0-.54-0.21h0Zm-37.7,2.16a6.28,6.28,0,1,1-6.27,6.28A6.265,6.265,0,0,1,9588.43,5917.97Zm31.56,3.98a0.682,0.682,0,0,0-.5.22l-2.62,2.62a0.737,0.737,0,0,0-.03,1.03,0.746,0.746,0,0,0,1.03.02,0.053,0.053,0,0,1,.02-0.03l2.62-2.62a0.715,0.715,0,0,0,.01-1.02,0.675,0.675,0,0,0-.53-0.22h0Zm3.52,0a0.717,0.717,0,0,0-.72.72,0.726,0.726,0,0,0,.22.52l2.62,2.63a0.728,0.728,0,1,0,1.05-1.01,0.022,0.022,0,0,1-.02-0.02l-2.63-2.62a0.726,0.726,0,0,0-.52-0.22h0Zm17.98,1.62a9.037,9.037,0,0,1,5.87,15.91v-4.42a3.03,3.03,0,0,0-3.02-3.02h-0.65a0.712,0.712,0,0,0-.68.48l-1.52,4.41-1.51-4.41a0.725,0.725,0,0,0-.69-0.48h-0.65a3.03,3.03,0,0,0-3.02,3.02v4.42A9.037,9.037,0,0,1,9641.49,5923.57Zm0,0.74a4.025,4.025,0,1,0,4.03,4.03A4.044,4.044,0,0,0,9641.49,5924.31Zm0,1.44a2.58,2.58,0,1,1-2.58,2.59A2.576,2.576,0,0,1,9641.49,5925.75Zm-55.53,5.81a7.8,7.8,0,0,0,2.47.41,7.626,7.626,0,0,0,2.45-.4,2.98,2.98,0,0,1-.35.69,1.419,1.419,0,0,1-.81.63h-2.58a1.178,1.178,0,0,1-.81-0.56A2.625,2.625,0,0,1,9585.96,5931.56Zm52.68,1.92h0.14l2.03,5.91a0.721,0.721,0,0,0,.91.46,0.775,0.775,0,0,0,.46-0.46l2.03-5.91h0.13a1.558,1.558,0,0,1,1.58,1.58v5.43a9.02,9.02,0,0,1-8.85,0v-5.43a1.556,1.556,0,0,1,1.57-1.58h0Zm-56.26.17h0.87l4.5,13.07a0.722,0.722,0,0,0,.92.45,0.743,0.743,0,0,0,.45-0.45l4.49-13.07h0.87a4.116,4.116,0,0,1,4.14,4.14v11.98a19.863,19.863,0,0,1-20.37,0v-11.98a4.114,4.114,0,0,1,4.13-4.14h0Zm5.09,0.69h1.92l1.17,3.72-2.13,6.2-2.13-6.2Zm33.55,7.67a2.85,2.85,0,1,0,2.86,2.85A2.855,2.855,0,0,0,9621.02,5942.01Zm0,1.45a1.405,1.405,0,1,1-1.4,1.4A1.394,1.394,0,0,1,9621.02,5943.46Zm20.25,4.21a0.717,0.717,0,0,0-.72.72,0.709,0.709,0,0,0,.22.52l2.62,2.63a0.746,0.746,0,0,0,1.03.02,0.727,0.727,0,0,0,.02-1.03,0.038,0.038,0,0,1-.02-0.02l-2.63-2.62A0.709,0.709,0,0,0,9641.27,5947.67Zm8.76,0a0.717,0.717,0,0,0-.49.22l-2.63,2.62a0.725,0.725,0,0,0,1,1.05,0.053,0.053,0,0,1,.03-0.02l2.62-2.63a0.715,0.715,0,0,0,.02-1.02A0.7,0.7,0,0,0,9650.03,5947.67Zm-6.14,6.14a0.767,0.767,0,0,0-.5.22l-2.62,2.63a0.721,0.721,0,0,0,1,1.04,0.022,0.022,0,0,0,.02-0.02l2.63-2.62a0.746,0.746,0,0,0,.02-1.03,0.815,0.815,0,0,0-.55-0.22h0Zm3.53,0a0.734,0.734,0,0,0-.73.73,0.744,0.744,0,0,0,.22.52l2.63,2.62a0.721,0.721,0,0,0,1.04-1,0.038,0.038,0,0,0-.02-0.02l-2.62-2.63a0.744,0.744,0,0,0-.52-0.22h0Zm-79.63.02a0.717,0.717,0,0,0-.72.72,0.726,0.726,0,0,0,.22.52l2.62,2.62a0.737,0.737,0,0,0,1.03.03,0.746,0.746,0,0,0,.02-1.03l-0.02-.02-2.63-2.62A0.709,0.709,0,0,0,9567.79,5953.83Zm8.76,0a0.7,0.7,0,0,0-.5.22l-2.62,2.62a0.715,0.715,0,0,0-.02,1.02,0.725,0.725,0,0,0,1.02.03,0.053,0.053,0,0,0,.02-0.03l2.63-2.62a0.725,0.725,0,0,0,.02-1.02A0.717,0.717,0,0,0,9576.55,5953.83Zm27.82,0.02a0.713,0.713,0,0,0-.71.74h0v7.32a0.725,0.725,0,1,0,1.45.02v-7.34a0.72,0.72,0,0,0-.71-0.74h-0.03Zm25.54,1.35a9.043,9.043,0,0,1,5.87,15.92v-4.43a3.03,3.03,0,0,0-3.02-3.02h-0.65a0.734,0.734,0,0,0-.69.49l-1.51,4.4-1.52-4.4a0.721,0.721,0,0,0-.68-0.49h-0.65a3.024,3.024,0,0,0-3.02,3.02v4.43a9.043,9.043,0,0,1,5.87-15.92h0Zm0,0.75a4.025,4.025,0,1,0,4.03,4.02,4.035,4.035,0,0,0-4.03-4.02h0Zm0,1.44a2.58,2.58,0,1,1-2.58,2.58,2.573,2.573,0,0,1,2.58-2.58h0Zm-41.06,2.2a2.855,2.855,0,1,0,2.85,2.85A2.87,2.87,0,0,0,9588.85,5959.59Zm-18.44.38a0.722,0.722,0,0,0-.5.22l-2.62,2.62a0.727,0.727,0,0,0-.02,1.03,0.715,0.715,0,0,0,1.02.02l0.02-.02,2.63-2.63a0.724,0.724,0,0,0,.01-1.02A0.7,0.7,0,0,0,9570.41,5959.97Zm3.52,0a0.717,0.717,0,0,0-.72.72,0.709,0.709,0,0,0,.22.52l2.62,2.63a0.727,0.727,0,0,0,1.03.02,0.716,0.716,0,0,0,.02-1.02,0.053,0.053,0,0,1-.02-0.03l-2.63-2.62a0.709,0.709,0,0,0-.52-0.22h0Zm14.92,1.07a1.405,1.405,0,1,1-1.41,1.4A1.391,1.391,0,0,1,9588.85,5961.04Zm15.52,2.31a0.717,0.717,0,0,0-.71.73v2.53a0.711,0.711,0,0,0,.71.73,0.719,0.719,0,0,0,.74-0.71v-2.55a0.726,0.726,0,0,0-.72-0.73h-0.02Zm22.68,1.77h0.14l2.03,5.91a0.722,0.722,0,0,0,.92.45,0.734,0.734,0,0,0,.46-0.45l2.03-5.91h0.13a1.554,1.554,0,0,1,1.57,1.57v5.44a9.02,9.02,0,0,1-8.85,0v-5.44a1.554,1.554,0,0,1,1.57-1.57h0Zm-52.69,5.09a0.733,0.733,0,0,0-.69.76,0.718,0.718,0,0,0,.76.68h4.59a0.72,0.72,0,1,0,.02-1.44h-4.61A0.085,0.085,0,0,0,9574.36,5970.21Zm6.95,0a0.726,0.726,0,0,0-.69.76,0.718,0.718,0,0,0,.76.68h13.1a0.72,0.72,0,1,0,.02-1.44h-13.12A0.085,0.085,0,0,0,9581.31,5970.21Zm-1.22,2.89a0.726,0.726,0,0,0,.08,1.45h8.91a0.726,0.726,0,0,0,.74-0.71,0.741,0.741,0,0,0-.72-0.74h-9.01Zm11.24,0a0.726,0.726,0,0,0,.07,1.45h3.71a0.711,0.711,0,0,0,.73-0.71,0.726,0.726,0,0,0-.71-0.74h-3.8ZM9609.5,5863a69.5,69.5,0,1,0,69.5,69.5A69.5,69.5,0,0,0,9609.5,5863Zm0,1.45a68.05,68.05,0,1,1-68.06,68.05A68.041,68.041,0,0,1,9609.5,5864.45Z" transform="translate(-9540 -5863)"/>
</svg>
