<svg xmlns="http://www.w3.org/2000/svg" width="114" height="114" viewBox="0 0 114 114">
  <metadata><?xpacket begin="﻿" id="W5M0MpCehiHzreSzNTczkc9d"?>
<x:xmpmeta xmlns:x="adobe:ns:meta/" x:xmptk="Adobe XMP Core 5.6-c138 79.159824, 2016/09/14-01:09:01        ">
   <rdf:RDF xmlns:rdf="http://www.w3.org/1999/02/22-rdf-syntax-ns#">
      <rdf:Description rdf:about=""/>
   </rdf:RDF>
</x:xmpmeta>
                                                                                                    
                                                                                                    
                                                                                                    
                                                                                                    
                                                                                                    
                                                                                                    
                                                                                                    
                                                                                                    
                                                                                                    
                                                                                                    
                                                                                                    
                                                                                                    
                                                                                                    
                                                                                                    
                                                                                                    
                                                                                                    
                                                                                                    
                                                                                                    
                                                                                                    
                                                                                                    
                           
<?xpacket end="w"?></metadata>
<defs>
    <style>
      .cls-1 {
        fill: #fff;
        fill-rule: evenodd;
      }
    </style>
  </defs>
  <path id="scheme" class="cls-1" d="M10034.7,1739.36a2.34,2.34,0,1,0,2.3,2.34A2.3,2.3,0,0,0,10034.7,1739.36Zm15,0.18a8.64,8.64,0,0,0-8.6,8.61,8.18,8.18,0,0,0,1.1,4.09l-13.1,10.46a17.571,17.571,0,1,0-13.4,28.96,17.662,17.662,0,0,0,13.4-6.17l13.1,10.46a8.171,8.171,0,0,0-1.1,4.08,8.681,8.681,0,1,0,1.7-5.08l-13-10.39a17.811,17.811,0,0,0,3.5-9.87h17.4a8.61,8.61,0,1,0,0-1.18h-17.4a17.843,17.843,0,0,0-3.5-9.88l13-10.39a8.664,8.664,0,0,0,6.9,3.51,8.605,8.605,0,0,0,0-17.21h0Zm-48.4.91a0.639,0.639,0,0,0-.6.61h0v6.01a0.63,0.63,0,0,0,.6.6,0.613,0.613,0,0,0,.6-0.59v-6.02a0.574,0.574,0,0,0-.6-0.61h0Zm2.4,0a0.639,0.639,0,0,0-.6.61h0v2.07a0.63,0.63,0,0,0,.6.6,0.613,0.613,0,0,0,.6-0.59v-2.08a0.639,0.639,0,0,0-.6-0.61h0Zm31,0.1a1.151,1.151,0,1,1-1.2,1.15A1.214,1.214,0,0,1,10034.7,1740.55Zm15,0.18a7.48,7.48,0,0,1,7.5,7.42,7.693,7.693,0,0,1-2.6,5.63v-3.63a2.541,2.541,0,0,0-2.5-2.47h-0.6a0.591,0.591,0,0,0-.5.4l-1.3,3.61-1.2-3.61a0.616,0.616,0,0,0-.6-0.4h-0.5a2.469,2.469,0,0,0-2.5,2.47v3.64A7.419,7.419,0,0,1,10049.7,1740.73Zm0,0.61a3.3,3.3,0,0,0,0,6.6A3.3,3.3,0,0,0,10049.7,1741.34Zm15,0.59a0.622,0.622,0,0,0-.6.6h0v6.01a0.639,0.639,0,0,0,.6.61,0.613,0.613,0,0,0,.6-0.59v-6.03a0.561,0.561,0,0,0-.6-0.6h0Zm-15,.6a2.115,2.115,0,1,1-2.1,2.11A2.141,2.141,0,0,1,10049.7,1742.53Zm-46,1.77a0.639,0.639,0,0,0-.6.61h0v6.01a0.622,0.622,0,0,0,.6.6,0.612,0.612,0,0,0,.6-0.58v-6.03a0.639,0.639,0,0,0-.6-0.61h0Zm-2.4,3.94a0.637,0.637,0,0,0-.6.6v2.08a0.622,0.622,0,0,0,.6.6,0.612,0.612,0,0,0,.6-0.58v-2.1a0.571,0.571,0,0,0-.6-0.6h0Zm10.5,0.04a0.6,0.6,0,0,0-.6.63,0.574,0.574,0,0,0,.6.56h3.8a0.612,0.612,0,0,0,.6-0.58,0.639,0.639,0,0,0-.6-0.61h-3.8Zm5.7,0a0.6,0.6,0,0,0-.6.63,0.574,0.574,0,0,0,.6.56h10.8a0.612,0.612,0,0,0,.6-0.58,0.639,0.639,0,0,0-.6-0.61h-10.8Zm29.9,0.59h0.1l1.7,4.84a0.537,0.537,0,0,0,.7.37,0.694,0.694,0,0,0,.4-0.37l1.7-4.84h0.1a1.293,1.293,0,0,1,1.3,1.28v4.46a7.535,7.535,0,0,1-3.7.95,7.439,7.439,0,0,1-3.6-.95v-4.46a1.287,1.287,0,0,1,1.3-1.28h0Zm17.3,0.85a0.622,0.622,0,0,0-.6.6v2.07a0.639,0.639,0,0,0,.6.61,0.613,0.613,0,0,0,.6-0.59v-2.09a0.561,0.561,0,0,0-.6-0.6h0Zm-48.2.94a0.6,0.6,0,1,0,0,1.19h7.3a0.554,0.554,0,0,0,.6-0.59,0.561,0.561,0,0,0-.6-0.6h-7.3Zm9.2,0a0.6,0.6,0,1,0,0,1.19h3.1a0.613,0.613,0,0,0,.6-0.59,0.622,0.622,0,0,0-.6-0.6h-3.1Zm-10,7.05a16.389,16.389,0,0,1,9.6,29.68v-9.05a4.616,4.616,0,0,0-4.6-4.58h-1.2a0.591,0.591,0,0,0-.5.4l-0.9,2.51-0.4-1.45a2.327,2.327,0,0,0,.7-0.73,3.1,3.1,0,0,0,.6-1.88,6.2,6.2,0,0,0,3.1-5.38,6.391,6.391,0,0,0-6.4-6.33,6.328,6.328,0,0,0-3.3,11.71,3.973,3.973,0,0,0,.6,1.95,2.531,2.531,0,0,0,.8.69l-0.5,1.42-0.8-2.51a0.616,0.616,0,0,0-.6-0.4h-1.1a4.546,4.546,0,0,0-4.6,4.58v9.05a16.213,16.213,0,0,1-6.86-13.3,16.39,16.39,0,0,1,16.36-16.38h0Zm47.1,1.2a2.345,2.345,0,0,0,0,4.69A2.346,2.346,0,1,0,10062.8,1758.91Zm0,1.19a1.156,1.156,0,1,1,0,2.31A1.156,1.156,0,0,1,10062.8,1760.1Zm-23.3.21a0.559,0.559,0,0,0-.6.59,0.617,0.617,0,0,0,.1.43l2.2,2.15a0.55,0.55,0,0,0,.8.02,0.572,0.572,0,0,0,.1-0.84c-0.1-.01-0.1-0.01-0.1-0.02l-2.1-2.15a0.6,0.6,0,0,0-.4-0.18h0Zm7.1,0a0.655,0.655,0,0,0-.4.18l-2.1,2.15a0.5,0.5,0,0,0,0,.84,0.55,0.55,0,0,0,.8.02v-0.02l2.2-2.15a0.663,0.663,0,0,0,0-.84,0.629,0.629,0,0,0-.5-0.18h0Zm-30.9,1.78a5.145,5.145,0,1,1-5.1,5.14A5.145,5.145,0,0,1,10015.7,1762.09Zm25.9,3.26a0.453,0.453,0,0,0-.4.18l-2.2,2.15a0.663,0.663,0,0,0,0,.84,0.68,0.68,0,0,0,.9.02v-0.02l2.1-2.16a0.5,0.5,0,0,0,0-.83,0.43,0.43,0,0,0-.4-0.18h0Zm2.9,0a0.613,0.613,0,0,0-.6.59,0.666,0.666,0,0,0,.2.42l2.1,2.16a0.685,0.685,0,0,0,.9.02,0.663,0.663,0,0,0,0-.84v-0.02l-2.2-2.15a0.453,0.453,0,0,0-.4-0.18h0Zm14.7,1.32a7.48,7.48,0,0,1,7.5,7.42,7.693,7.693,0,0,1-2.6,5.63v-3.62a2.55,2.55,0,0,0-2.5-2.48h-0.6a0.591,0.591,0,0,0-.5.4l-1.3,3.61-1.2-3.61a0.616,0.616,0,0,0-.6-0.4h-0.5a2.484,2.484,0,0,0-2.5,2.48v3.63A7.419,7.419,0,0,1,10059.2,1766.67Zm0,0.61a3.305,3.305,0,0,0,0,6.61A3.305,3.305,0,0,0,10059.2,1767.28Zm0,1.19a2.115,2.115,0,1,1-2.1,2.11A2.141,2.141,0,0,1,10059.2,1768.47Zm-45.5,4.76a6.169,6.169,0,0,0,2,.34,5.912,5.912,0,0,0,2-.34,0.759,0.759,0,0,1-.3.58,0.983,0.983,0,0,1-.6.51h-2.1a0.88,0.88,0,0,1-.7-0.46A5.374,5.374,0,0,1,10013.7,1773.23Zm43.2,1.58h0.1l1.7,4.84a0.537,0.537,0,0,0,.7.37,0.664,0.664,0,0,0,.4-0.37l1.7-4.84h0.1a1.3,1.3,0,0,1,1.3,1.29v4.45a7.435,7.435,0,0,1-3.7.96,7.339,7.339,0,0,1-3.6-.96v-4.45a1.289,1.289,0,0,1,1.3-1.29h0Zm-46.1.14h0.7l3.7,10.71a0.537,0.537,0,0,0,.7.37,0.664,0.664,0,0,0,.4-0.37l3.7-10.71h0.7a3.37,3.37,0,0,1,3.4,3.39v9.82a16.436,16.436,0,0,1-8.4,2.31,16.075,16.075,0,0,1-8.3-2.31v-9.82a3.364,3.364,0,0,1,3.4-3.39h0Zm4.1,0.56h1.6l1,3.05-1.8,5.08-1.7-5.08Zm27.5,6.29a2.34,2.34,0,0,0,0,4.68A2.341,2.341,0,1,0,10042.4,1781.8Zm0,1.18a1.156,1.156,0,1,1,0,2.31A1.156,1.156,0,0,1,10042.4,1782.98Zm16.7,3.46a0.559,0.559,0,0,0-.6.59,0.6,0.6,0,0,0,.1.43l2.2,2.15a0.542,0.542,0,0,0,.8.02,0.572,0.572,0,0,0,.1-0.84c-0.1-.01-0.1-0.01-0.1-0.02l-2.1-2.15A0.655,0.655,0,0,0,10059.1,1786.44Zm7.1,0a0.717,0.717,0,0,0-.4.18l-2.1,2.15a0.5,0.5,0,0,0,0,.84,0.542,0.542,0,0,0,.8.02v-0.02l2.2-2.15A0.6,0.6,0,0,0,10066.2,1786.44Zm-5,5.04a0.655,0.655,0,0,0-.4.18l-2.2,2.15a0.623,0.623,0,0,0,.9.86v-0.02l2.1-2.15a0.572,0.572,0,0,0,.1-0.84,0.79,0.79,0,0,0-.5-0.18h0Zm2.9,0a0.613,0.613,0,0,0-.6.59,0.692,0.692,0,0,0,.2.43l2.1,2.15a0.609,0.609,0,1,0,.9-0.82v-0.02l-2.2-2.15a0.453,0.453,0,0,0-.4-0.18h0Zm-65.31.01a0.591,0.591,0,0,0-.59.59,0.566,0.566,0,0,0,.18.43l2.12,2.15a0.609,0.609,0,1,0,.9-0.82v-0.02l-2.18-2.15A0.622,0.622,0,0,0,9998.79,1791.49Zm7.21,0a0.478,0.478,0,0,0-.4.18l-2.2,2.15a0.663,0.663,0,0,0,0,.84,0.542,0.542,0,0,0,.8.02c0-.01.1-0.01,0.1-0.02l2.1-2.15a0.564,0.564,0,0,0,0-.84A0.6,0.6,0,0,0,10006,1791.49Zm22.8,0.02a0.622,0.622,0,0,0-.6.6h0v6.01a0.639,0.639,0,0,0,.6.61,0.613,0.613,0,0,0,.6-0.59v-6.03a0.622,0.622,0,0,0-.6-0.6h0Zm20.9,1.11a7.48,7.48,0,0,1,7.5,7.42,7.711,7.711,0,0,1-2.6,5.63v-3.63a2.541,2.541,0,0,0-2.5-2.47h-0.6a0.591,0.591,0,0,0-.5.4l-1.3,3.61-1.2-3.61a0.616,0.616,0,0,0-.6-0.4h-0.5a2.476,2.476,0,0,0-2.5,2.47v3.63a7.412,7.412,0,0,1,4.8-13.05h0Zm0,0.61a3.3,3.3,0,0,0,0,6.6,3.3,3.3,0,0,0,0-6.6h0Zm0,1.19a2.115,2.115,0,1,1-2.1,2.11,2.141,2.141,0,0,1,2.1-2.11h0Zm-33.6,1.8a2.34,2.34,0,1,0,2.3,2.34A2.389,2.389,0,0,0,10016.1,1796.22Zm-15.2.31a0.655,0.655,0,0,0-.4.18l-2.12,2.15a0.594,0.594,0,1,0,.82.86l0.02-.02,2.18-2.15a0.663,0.663,0,0,0,0-.84A0.629,0.629,0,0,0,10000.9,1796.53Zm2.9,0a0.613,0.613,0,0,0-.6.59,0.692,0.692,0,0,0,.2.43l2.2,2.15a0.55,0.55,0,0,0,.8.02,0.564,0.564,0,0,0,0-.84v-0.02l-2.1-2.15a0.852,0.852,0,0,0-.5-0.18h0Zm12.3,0.87a1.156,1.156,0,0,1,0,2.31A1.156,1.156,0,1,1,10016.1,1797.4Zm12.7,1.9a0.622,0.622,0,0,0-.6.6v2.07a0.639,0.639,0,0,0,.6.61,0.613,0.613,0,0,0,.6-0.59v-2.09a0.622,0.622,0,0,0-.6-0.6h0Zm18.6,1.45h0.1l1.7,4.85a0.537,0.537,0,0,0,.7.37,0.694,0.694,0,0,0,.4-0.37l1.7-4.85h0.1a1.3,1.3,0,0,1,1.3,1.29v4.46a7.535,7.535,0,0,1-3.7.95,7.439,7.439,0,0,1-3.6-.95v-4.46a1.3,1.3,0,0,1,1.3-1.29h0Zm-43.2,4.17a0.666,0.666,0,0,0-.6.63,0.58,0.58,0,0,0,.6.56h3.8a0.6,0.6,0,0,0,.6-0.58,0.639,0.639,0,0,0-.6-0.61h-3.8Zm5.7,0a0.666,0.666,0,0,0-.6.63,0.58,0.58,0,0,0,.6.56h10.8a0.6,0.6,0,0,0,.6-0.58,0.639,0.639,0,0,0-.6-0.61h-10.8Zm-1,2.38a0.648,0.648,0,0,0-.6.62,0.589,0.589,0,0,0,.6.57h7.4a0.613,0.613,0,0,0,.6-0.59,0.622,0.622,0,0,0-.6-0.6h-7.4Zm9.2,0a0.656,0.656,0,0,0-.6.62,0.621,0.621,0,0,0,.7.57h3a0.613,0.613,0,0,0,.6-0.59,0.622,0.622,0,0,0-.6-0.6h-3.1Zm14.9-90.3a57,57,0,1,0,57,57A56.994,56.994,0,0,0,10033,1717Zm0,1.19a55.81,55.81,0,1,1-55.82,55.81A55.812,55.812,0,0,1,10033,1718.19Z" transform="translate(-9976 -1717)"/>
</svg>
