<?xml version="1.0" encoding="utf-8"?>
<!-- Generator: Adobe Illustrator 21.0.1, SVG Export Plug-In . SVG Version: 6.00 Build 0)  -->
<svg version="1.1" id="Layer_1" xmlns="http://www.w3.org/2000/svg" xmlns:xlink="http://www.w3.org/1999/xlink" x="0px" y="0px"
	 viewBox="0 0 87 104" style="enable-background:new 0 0 87 104;" xml:space="preserve">
<style type="text/css">
	.st0{fill:#FFFFFF;}
</style>
<path id="_shield" class="st0" d="M60.4,65.3c0,0.5,0,1.1-0.1,1.6c-0.4,1.1-1.2,2-2.3,2.4c-1.7,0.8-3.4,1.3-5.3,1.5
	c-3,0.4-6.1,0.6-9.1,0.6c-2.9,0-5.9-0.2-8.8-0.5c-2-0.2-3.9-0.8-5.7-1.6c-0.6-0.3-1.1-0.7-1.6-1.1c-0.7-0.5-1-1.4-0.9-2.2
	c-0.1-0.7,0-1.4,0.1-2c0.4-1.2,1.1-2.2,2.1-2.9c1.6-1.3,3.3-2.4,5.2-3.2c1.2-0.5,2.4-1,3.6-1.5c1.3-0.5,1.9-2,1.4-3.3c0,0,0,0,0,0
	c-0.1-0.3-0.3-0.5-0.5-0.8c-2.8-3-4.2-7-4.1-11c0-2.3,0.9-4.5,2.5-6.2c1.4-1.4,3.1-2.3,5.1-2.5c2-0.3,4.1,0,5.9,1
	c2.3,1.2,3.9,3.3,4.4,5.8c0.4,2.2,0.3,4.4-0.4,6.5c-0.7,2.4-1.9,4.6-3.6,6.4c-0.7,1-0.7,2.3-0.2,3.4c0.3,0.3,0.6,0.5,1,0.7
	c1.9,0.7,3.8,1.5,5.6,2.4c1.6,0.8,3.1,1.9,4.3,3.2C60,62.9,60.5,64.1,60.4,65.3z M82.6,20.9C69.9,15.4,57.2,9.8,44.5,4.2
	c-0.6-0.3-1.3-0.3-1.8,0C29.8,9.8,17.1,15.4,4.4,20.9c-0.6,0.2-1.1,0.8-1,1.4c0.1,8.5,0,17.1,0.1,25.6c0,2.8,0.3,5.6,0.7,8.4
	c1.4,8.8,5,17.2,10.4,24.3c6.7,9.2,16.2,15.9,27,19.1c1.2,0.4,2.5,0.4,3.7,0c10.3-3,19.5-9.2,26-17.7c8-9.7,12.3-22,12.3-34.5V22.5
	C83.7,21.8,83.3,21.1,82.6,20.9L82.6,20.9z M76.7,39v9.2c0.1,10.4-3.5,20.6-10.1,28.7c-5.5,7.1-13,12.2-21.6,14.7
	c-1,0.3-2.1,0.3-3.1,0c-9-2.7-16.9-8.2-22.4-15.8C15,69.9,12,62.9,10.8,55.6c-0.4-2.3-0.6-4.6-0.6-7c-0.1-7.1,0-14.2,0-21.3
	c-0.1-0.6,0.3-1.1,0.8-1.2c10.5-4.6,21-9.2,31.7-13.9c0.5-0.2,1.1-0.2,1.6,0c10.5,4.6,21.1,9.2,31.7,13.8c0.6,0.2,0.9,0.7,0.8,1.3
	L76.7,39L76.7,39L76.7,39z"/>
</svg>
