<svg xmlns="http://www.w3.org/2000/svg" width="145" height="72" viewBox="0 0 145 72">
  <metadata><?xpacket begin="﻿" id="W5M0MpCehiHzreSzNTczkc9d"?>
<x:xmpmeta xmlns:x="adobe:ns:meta/" x:xmptk="Adobe XMP Core 5.6-c138 79.159824, 2016/09/14-01:09:01        ">
   <rdf:RDF xmlns:rdf="http://www.w3.org/1999/02/22-rdf-syntax-ns#">
      <rdf:Description rdf:about=""/>
   </rdf:RDF>
</x:xmpmeta>
                                                                                                    
                                                                                                    
                                                                                                    
                                                                                                    
                                                                                                    
                                                                                                    
                                                                                                    
                                                                                                    
                                                                                                    
                                                                                                    
                                                                                                    
                                                                                                    
                                                                                                    
                                                                                                    
                                                                                                    
                                                                                                    
                                                                                                    
                                                                                                    
                                                                                                    
                                                                                                    
                           
<?xpacket end="w"?></metadata>
<defs>
    <style>
      .cls-1 {
        fill: #00945e;
        fill-rule: evenodd;
      }
    </style>
  </defs>
  <path id="truck" class="cls-1" d="M9585.01,2626.34a4.7,4.7,0,1,0,4.68,4.7A4.7,4.7,0,0,0,9585.01,2626.34Zm0,6.26a1.565,1.565,0,1,1,1.56-1.56A1.562,1.562,0,0,1,9585.01,2632.6Zm68.6-6.26a4.7,4.7,0,1,0,4.68,4.7A4.7,4.7,0,0,0,9653.61,2626.34Zm0,6.26a1.565,1.565,0,1,1,1.56-1.56A1.562,1.562,0,0,1,9653.61,2632.6Zm18.7-9.31v-5.92a14.3,14.3,0,0,0-13.72-14.49c-0.03,0-.05-0.02-0.08-0.02h-0.62l-13.92-19.69a1.555,1.555,0,0,0-1.27-.66h-14.04v-10.95a1.556,1.556,0,0,0-1.55-1.57h-62.37a1.564,1.564,0,0,0-1.56,1.57v10.96h-7.79a1.565,1.565,0,0,0,0,3.13h7.79v9.39h-29.62a1.565,1.565,0,0,0,0,3.13h29.62v7.82h-7.79a1.565,1.565,0,0,0,0,3.13h7.79v14.17a5.469,5.469,0,0,0,.78,10.88h10.59a10.9,10.9,0,0,0,20.91,0h47.7a10.9,10.9,0,0,0,20.91,0h7.47A5.468,5.468,0,0,0,9672.31,2623.29Zm-43.65-37.65h13.23l12.18,17.22h-17.61V2592a1.56,1.56,0,0,0-3.12,0v12.43a1.556,1.556,0,0,0,1.56,1.56h23.39a11.164,11.164,0,0,1,10.9,11.38v5.84h-7.95a10.853,10.853,0,0,0-15.25,0h-17.33v-37.57Zm-62.36,23.48h21.83a1.565,1.565,0,0,0,0-3.13H9566.3v-7.82h9.35a1.565,1.565,0,0,0,0-3.13h-9.35v-9.39h26.5a1.565,1.565,0,0,0,0-3.13h-26.5v-9.4h59.25v10.95q-0.045,14.1-.01,28.18l0.01,10.96h-32.92a10.853,10.853,0,0,0-15.25,0H9566.3v-14.09Zm-2.34,21.92a2.35,2.35,0,0,1,0-4.7h11.2a11.051,11.051,0,0,0-1.06,4.7h-10.14Zm21.05,7.82a7.825,7.825,0,1,1,7.79-7.82A7.821,7.821,0,0,1,9585.01,2638.86Zm10.92-7.82h0a11.058,11.058,0,0,0-1.07-4.7h48.91a10.911,10.911,0,0,0-1.07,4.7h-46.77Zm57.68,7.82a7.825,7.825,0,1,1,7.8-7.82A7.812,7.812,0,0,1,9653.61,2638.86Zm17.93-7.82h-7.01a10.911,10.911,0,0,0-1.07-4.7h8.08A2.35,2.35,0,0,1,9671.54,2631.04Z" transform="translate(-9532 -2570)"/>
</svg>
