<?xml version="1.0" encoding="utf-8"?>
<!-- Generator: Adobe Illustrator 21.0.1, SVG Export Plug-In . SVG Version: 6.00 Build 0)  -->
<svg version="1.1" id="Layer_1" xmlns="http://www.w3.org/2000/svg" xmlns:xlink="http://www.w3.org/1999/xlink" x="0px" y="0px"
	 viewBox="0 0 209 208" style="enable-background:new 0 0 209 208;" xml:space="preserve">
<style type="text/css">
	.st0{fill:#373737;}
</style>
<path class="st0" d="M105.2,1C47.9,1,1.5,47.4,1.5,104.7c0,57.3,46.4,103.7,103.7,103.7c57.3,0,103.7-46.4,103.7-103.7
	C209,47.4,162.5,1,105.2,1z M84.1,104.7c0,0,0,0.1,0,0.1l39.6,16.9c3.4-2.9,7.8-4.6,12.5-4.6c10.7,0,19.5,8.7,19.5,19.5
	c0,10.7-8.7,19.5-19.5,19.5c-10.2,0-18.5-7.8-19.4-17.7l-41.2-17.6c-3.1,2.2-6.9,3.4-11,3.4c-10.7,0-19.5-8.7-19.5-19.5
	c0-10.7,8.7-19.5,19.5-19.5c4.1,0,7.9,1.3,11,3.4l41.2-17.6c0.9-9.9,9.2-17.7,19.4-17.7c10.7,0,19.5,8.7,19.5,19.5
	c0,10.7-8.7,19.5-19.5,19.5c-4.8,0-9.1-1.7-12.5-4.6l-39.6,16.9C84.1,104.7,84.1,104.7,84.1,104.7z"/>
</svg>
